<svg xmlns="http://www.w3.org/2000/svg" width="1211" height="244" viewBox="0 0 1211 244"><path fill="#aa8abc" d="M184.75 46.313c18.91 16.22 31.59 37.91 35.25 62.69 1.22 19.88.04 38.9-9 57-.54 1.09-1.08 2.19-1.64 3.31-7.87 14.8-20.97 31.99-37.36 37.69-1.4-3.95-2.4-7.72-3.03-11.86-.18-1.14-.36-2.28-.54-3.46-.19-1.23-.37-2.46-.57-3.73-.2-1.3-.4-2.6-.6-3.94-.66-4.25-1.3-8.51-1.95-12.76-.22-1.45-.44-2.9-.67-4.39-1.56-10.29-3.11-20.57-4.64-30.86-.19-1.3-.39-2.61-.59-3.95-1.04-7-2.07-14.01-3.08-21.02-.3-2.08-.6-4.16-.91-6.24-1.52-10.33-2.77-20.41-2.42-30.89 0-2.9 0-2.9-1-6.9l-2.87.06c-3.13-.06-3.13-.06-5.13-1.06.09.69.19 1.38.29 2.09 3.28 24.3 5.92 48.66 8.5 73.04.56 5.22 1.12 10.44 1.67 15.65q1.515 14.07 3 28.14c.37 3.48.74 6.96 1.12 10.44.1.86.19 1.73.29 2.62.25 2.37.51 4.74.77 7.12.36 3.9.36 3.9.36 8.9-4 2-4 2-7 2-1.35-2.71-1.07-5.01-1-8-1.59-.15-3.18-.29-4.81-.44-.5-.05-.5-.05-3.01-.27-1.05-.1-2.1-.19-3.18-.29l-6.19-.57c-1.59-.14-3.17-.28-4.81-.43v14h-6v-7h-3v7h-6c.01-.93.02-1.86.04-2.81 0-1.2.01-2.4.02-3.63.01-1.19.03-2.39.04-3.62-.1-2.94-.1-2.94-1.1-3.94-2.61.23-5.21.53-7.81.87-1.43.19-2.86.37-4.33.56-3.86.57-3.86.57-7.86 1.57l-2 7-7-2c1.47-15.08 3.09-30.14 4.75-45.2l.78-7.13c.55-4.94 1.09-9.88 1.64-14.82.69-6.28 1.38-12.57 2.08-18.86.53-4.89 1.07-9.78 1.61-14.67.26-2.32.51-4.63.77-6.95.68-6.21 1.37-12.41 2.06-18.62.2-1.81.41-3.62.61-5.43.26-2.42.54-4.83.81-7.25.15-1.33.3-2.66.45-4.03.44-3.04.44-3.04 1.44-5.04l-8 1v4h-2l1 2c.31 7.97-.57 15.58-1.69 23.47-.18 1.3-.35 2.59-.54 3.93q-.87 6.33-1.77 12.66c-.2 1.44-.4 2.88-.61 4.36-2.73 19.56-5.63 39.09-8.83 58.58-.08.51-.08.51-.5 3.09-.99 5.97-1.97 11.95-3.06 17.91-.15.84-.29 1.67-.44 2.54-.42 2.17-.98 4.32-1.56 6.46l-3 1c-21.01-11.03-35.81-33.05-43-55-7.59-25.45-4.96-50.94 6.85-74.73 4.27-7.8 9.2-14.67 15.15-21.27.75-.84 1.5-1.69 2.27-2.55 35.23-37.51 93.21-37.88 132.48-7.14M80 56.003c1.51 4.98 4.47 8.25 8 12l3 1v-4c15.18-8.02 30.04-11.25 47-7 4.42 1.48 8.71 3.18 13 5 1.67.67 3.33 1.34 5 2l-2 4c5.3-1.33 7.24-4.56 10-9 .7-1.65 1.38-3.32 2-5-12.95-7.79-23.9-12.58-39-14-.89-.09-1.78-.17-2.7-.26-14.87-.68-34.01 3.92-44.3 15.26m37 13c.37.76.74 1.52 1.13 2.31.28.89.57 1.77.87 2.69l-2 3c1.48-.17 1.48-.17 9-1 .14-.77.29-1.53.44-2.31.56-2.69.56-2.69 1.56-5.69-2-2-2-2-4.94-2.31-3.06.31-3.06.31-6.06 3.31m-9 0c-2.57 3.85-1.83 5.58-1 10h7v-2h-2l2-4-1-4zm24 0-1 1c.29 2.67.62 5.34 1 8 .99.16.99.16 6 1l-1-4 2-4-2-2zm-12 10c-.85 6.13-1.28 12.24-1.54 18.42-.04.98-.08 1.96-.13 2.97-.09 2.07-.17 4.14-.26 6.21-.13 3.12-.27 6.25-.41 9.38-.42 9.68-.78 19.33-.66 29.02h-2v2h16l-3-3c-.49-2.3-.49-2.3-.66-5.08-.06-1.07-.13-2.14-.19-3.25-.29-7.14-.49-14.28-.65-21.42-.26-11.44-.7-22.84-1.5-34.25zm-10 2c-1.59 3.18-.77 6.13-.44 9.63.14 1.53.28 3.06.42 4.63.15 1.6.3 3.21.46 4.86.15 1.62.29 3.23.44 4.89.37 4 .74 7.99 1.12 11.99h1c.19-24.92.19-24.92-1-36zm23 0c-1 1-1 1-1.11 4.14 0 1.38.01 2.75.01 4.17.01 1.49.01 2.98.01 4.51l.03 4.74c0 1.57.01 3.14.01 4.76.01 3.89.03 7.78.05 11.68h1c.34-4.36.67-8.71 1-13.07.1-1.22.19-2.45.29-3.72.43-5.75.85-11.44.71-17.21zm-20 38v8h1v-8zm18 1v6h1v-6zm-16 31c-.49 2.35-.88 4.72-1.22 7.1-.21 1.44-.42 2.88-.64 4.36-.1.76-.1.76-.64 4.6-2.59 18.16-2.59 18.16-4.5 25.94 1.1-.17 2.21-.33 3.34-.5 5.1-.55 10.05-.61 15.16-.57.92.01 1.84.01 2.78.02 2.24.01 4.48.03 6.72.05-.81-5.97-1.62-11.93-2.45-17.89l-.84-6.09c-.39-2.92-.79-5.83-1.2-8.74-.12-.91-.24-1.82-.37-2.77-.31-2.18-.72-4.35-1.14-6.51-2.6-1.3-4.6-1.17-7.5-1.19-.49-.01-.49-.01-2.97-.04-2.53.23-2.53.23-4.53 2.23m-9 45-1 2h35c-.16-.5-.16-.5-1-3-11.47-2.28-22.01-3.69-33 1m-3 5-2 4c.49-.08.49-.08 2.97-.5 4.24-.53 8.31-.62 12.59-.6.8 0 .8 0 4.85.01 1.68.01 3.35.02 5.03.02 1.7.01 3.4.01 5.1.02 4.16.01 8.31.03 12.46.05-3.64-3.94-5.59-4.64-11-5-21.43-.77-21.43-.77-30 2m17 6v1h6v-1z"/><path fill="#aa89bb" d="m86 32-1 2-3 1c-1.19 2.56-1.19 2.56-2 5h-2c.38 2.44.38 2.44 1 5l2 1c.62 2.56.62 2.56 1 5l4 1-5 4c1.45 4.49 3.8 7.55 7 11h2l1-3 7 2-4 1v4h-2l1 2c.31 7.98-.57 15.58-1.69 23.47-.18 1.3-.35 2.6-.54 3.93q-.87 6.33-1.77 12.66c-.2 1.44-.4 2.88-.61 4.36-2.73 19.56-5.63 39.09-8.83 58.58-.08.51-.08.51-.5 3.09-.99 5.98-1.97 11.95-3.06 17.91-.15.84-.29 1.68-.44 2.54-.42 2.18-.98 4.32-1.56 6.46l-3 1c-21.01-11.03-35.81-33.05-43-55-7.59-25.45-4.96-50.94 6.85-74.73C39.12 69.47 44.05 62.6 50 56c.75-.84 1.5-1.68 2.27-2.55C59.91 45.32 74.29 32 86 32"/><path fill="#d793b8" d="M648.156 83.527c6.4 5.23 12.66 12.07 13.84 20.47-2.57 1.54-5.15 3.06-7.75 4.57-.73.43-1.46.87-2.21 1.32-5.58 3.23-5.58 3.23-10.04 2.11-1.42-1.89-1.42-1.89-2.75-4.25-3.57-5.67-8.03-8.25-14.06-11.06-10.04-2.17-18.94-.37-27.81 4.81-8.52 6.03-12.61 15.48-14.38 25.5-2.3 14.4.21 26.62 8 39 5.74 6.28 12.25 9.51 20.66 10.39 10.05.3 16.06-1.16 24.16-7.26 2.93-2.88 5.09-5.61 7.18-9.13 4.73 1.44 8.98 3.39 13.38 5.63 1.24.63 2.49 1.26 3.77 1.91.94.48 1.88.97 2.85 1.46-3.79 10.27-12.08 19.19-21.68 24.32-14.59 6.7-31.08 8.22-46.32 2.68-13.31-5.72-23.98-15.66-29.72-29.01-7.55-19.68-7.57-39.93.16-59.66 6.14-13.53 16.23-24.59 30.08-30.38 17.57-6.14 37.36-4.24 52.64 6.58"/><path fill="#fa9e9f" d="M267 75c55.42 0 55.42 0 66.77 9.73 8.41 8.55 11.35 18.92 11.61 30.65-.27 12.12-2.43 22.15-10.38 31.62-9.91 8.96-20.14 10.45-33.06 10.69-1.25.03-2.5.07-3.78.1-3.05.08-6.11.15-9.16.21-.03 1.15-.05 2.29-.08 3.47-.09 4.24-.19 8.47-.29 12.71-.05 1.84-.09 3.67-.13 5.51-.05 2.63-.12 5.27-.18 7.9-.04 1.59-.08 3.17-.11 4.81C288 196 288 196 287 197h-20zm21 20v42c23.42 0 23.42 0 29.69-3.5 4.53-4.9 6.12-10.51 6.75-17.06-.69-6.98-1.81-11.75-6.75-16.88C307.83 92.71 301.3 95 288 95"/><path fill="#bd91c8" d="M799 119c2.93 2.18 5.43 4.43 8 7 1.11-1.09 2.23-2.19 3.38-3.31 5.92-5.14 11.98-7.11 19.81-6.57 6.61 1.21 12.01 3.08 16.81 7.88 4.39 6.6 6.13 12.04 6.11 19.98v3.58c0 1.27-.01 2.53-.01 3.83 0 1.31-.01 2.61-.01 3.95 0 4.16-.01 8.32-.03 12.47 0 2.82-.01 5.64-.01 8.46-.01 6.91-.03 13.82-.05 20.73h-19c-.01-1.57-.03-3.15-.04-4.77-.06-5.85-.14-11.7-.22-17.54-.04-2.53-.06-5.06-.09-7.59-.03-3.64-.08-7.28-.14-10.92 0-1.13-.01-2.26-.02-3.42-.19-10.04-.19-10.04-3.49-14.76-3.94-2.63-6.33-2.35-11-2-3.22 1.33-4.58 2.14-6.11 5.28-.93 2.84-1.16 5.07-1.19 8.05-.02 1.03-.04 2.07-.05 3.14l-.03 3.36c-.02 1.14-.03 2.29-.05 3.47-.05 3.65-.09 7.3-.13 10.95-.05 3.67-.09 7.33-.15 11-.03 2.28-.05 4.56-.08 6.84-.1 7.8-.1 7.8-1.21 8.91-3.03.07-6.03.09-9.06.06-.86 0-1.71-.01-2.59-.01-2.12-.01-4.23-.03-6.35-.05-.01-1.5-.03-3.01-.04-4.55-.06-5.6-.14-11.2-.22-16.8-.04-2.42-.06-4.84-.09-7.26-.03-3.48-.08-6.97-.14-10.45 0-1.08-.01-2.15-.02-3.26-.12-6.13-.74-11.06-3.49-16.68-3.94-2.63-6.33-2.35-11-2-3.64 1.37-4.72 2.49-6.61 5.9-1.81 5.33-1.85 10.1-1.87 15.69 0 .54 0 .54-.04 3.32-.05 3.49-.08 6.98-.1 10.47-.04 3.5-.08 7.01-.13 10.52-.02 2.18-.05 4.36-.06 6.54-.08 7.45-.08 7.45-1.19 8.56h-18v-79h19l1 5c1.01-.78 2.02-1.57 3.06-2.38 9.04-6.02 17.08-5.65 26.94-1.62"/><path fill="#b28ecd" d="M916 121c2.03 1.63 4.04 3.28 6 5l1.61-1.46c.71-.63 1.41-1.26 2.14-1.92.7-.62 1.39-1.25 2.11-1.89 5.27-4.25 10.6-4.8 17.14-4.73 7.25 1.24 13.28 3.89 18.19 9.5 4.69 9.06 5.25 18.64 5.14 28.67 0 1.2-.01 2.4-.01 3.64 0 2.51-.02 5.03-.04 7.54-.03 3.87-.04 7.73-.05 11.6 0 2.45-.02 4.89-.03 7.34 0 1.16-.01 2.32-.01 3.52-.07 8.07-.07 8.07-1.19 9.19-3.03.07-6.03.09-9.06.06-.86 0-1.71-.01-2.59-.01-2.12-.01-4.23-.03-6.35-.05-.01-1.54-.03-3.08-.04-4.66-.06-5.73-.14-11.45-.22-17.17-.04-2.48-.06-4.95-.09-7.43-.03-3.56-.08-7.12-.14-10.68 0-1.1-.01-2.2-.02-3.34-.11-5.88-.48-10.49-3.49-15.72-3.97-2.65-6.29-2.42-11-2-3.53 1.7-5.45 2.84-7.14 6.41-1.23 5.12-1.22 10.09-1.27 15.33l-.06 3.41c-.06 3.57-.11 7.15-.15 10.73l-.12 7.28c-.1 5.95-.18 11.89-.26 17.84q-4.47.045-8.94.06c-.42.01-.42.01-2.57.03-2.17.01-4.33-.04-6.49-.09-2.4-2.4-1.19-9.3-1.21-12.73l-.09-7.31c-.04-3.85-.08-7.71-.1-11.57-.03-3.71-.07-7.42-.12-11.12-.01-1.16-.01-2.31-.01-3.5-.02-1.07-.04-2.15-.05-3.26l-.03-2.87c-.47-3.16-1.53-5.06-3.39-7.64-3.59-1.8-7.08-1.26-11-1-3.23 1.79-4.58 3.07-6.1 6.41-1.28 5.12-1.26 10.08-1.31 15.33l-.06 3.41c-.06 3.57-.11 7.15-.15 10.73l-.12 7.28c-.1 5.95-.18 11.89-.26 17.84q-4.47.045-8.94.06l-2.57.03c-2.17.01-4.33-.04-6.49-.09-1.94-1.94-1.13-5.61-1.13-8.17 0-1.53-.01-3.07-.01-4.66 0-1.69 0-3.38.01-5.08 0-1.72 0-3.44-.01-5.16 0-3.62 0-7.23.01-10.85.01-4.64 0-9.29 0-13.93q-.015-5.34 0-10.68c0-1.71 0-3.42-.01-5.13 0-2.39.01-4.78.01-7.17v-4.13C864 119 864 119 865 118c3.03-.07 6.03-.09 9.06-.06.86 0 1.71.01 2.59.01 2.12.01 4.23.03 6.35.05l1 5c.3-.21.3-.21 1.79-1.28.79-.55 1.58-1.09 2.4-1.66.77-.54 1.55-1.09 2.35-1.65 8.06-4.62 18.21-2.53 25.46 2.59"/><path fill="#e598b5" d="M483 77h19l1 67c12-14 12-14 14.95-18.43 3.22-4.83 5.96-8.92 11.92-10.17 7.1-.6 14.06-.12 21.13.6-1.3 5.19-4.37 7.85-8 11.56-16.43 17.17-16.43 17.17-18 23.44a87 87 0 0 0 5.19 7.69c1.11 1.52 2.22 3.05 3.33 4.58.58.78 1.16 1.56 1.75 2.37 2.72 3.71 5.39 7.47 8.04 11.24.5.7 1 1.4 1.51 2.13 3.91 5.55 7.63 11.2 11.18 16.99-2.85 2.85-11.15 1.92-15.14 2.01-5.31-.15-8.05-.38-12.33-3.71-2.54-3.65-4.55-7.32-6.53-11.3-1.43-2.19-2.88-4.36-4.38-6.5-1.2-1.83-2.41-3.67-3.62-5.5-1.33-2-2.67-4-4-6-6.57 4.13-6.57 4.13-7.67 8.93-.24 3.5-.3 6.94-.27 10.45-.01 1.21-.03 2.42-.05 3.67-.03 2.98-.02 5.97-.01 8.95h-19z"/><path fill="#fa9da6" d="M399.242 117.258c9.94 6.28 14.67 13.85 18.01 24.87 1.01 6.55.75 13.24.75 19.87h-53c4.24 12.72 4.24 12.72 11.19 16.94 6.27 1.75 11.48 1.29 17.25-1.75 2.56-2.19 2.56-2.19 5.56-6.19 4.35.57 7.18 2.16 10.81 4.56.98.65 1.95 1.29 2.96 1.95.73.49 1.47.98 2.23 1.49-3.14 8.45-8.27 12.78-16.13 16.78-9.69 4.13-19.86 4.25-29.87 1.22-10.96-4.9-16.81-11.39-21.38-22.37-4.52-12.88-4.18-27.11 1.38-39.63 4.84-9.84 11.11-14.85 20.62-19.94 10.01-2.43 20.25-2.32 29.62 2.2m-28.99 18.87c-2.25 2.87-2.25 2.87-5.25 11.87h33c-.91-6.38-1.25-8.28-5-13-7.88-5.91-15.25-4.67-22.75 1.13"/><path fill="#c893c1" d="M725.645 122.309c9.09 6.52 13.77 14.93 16.36 25.69 1.09 13.71-.12 26.13-9 37-7.11 8.2-15.25 12.53-26 14-10.06.12-19.22-2.76-27.12-9.11-8.23-8.25-12.38-19.37-12.88-30.89 1.21-16.86 5.59-26.81 18.37-37.94 12.96-7.37 27.76-6.8 40.27 1.25m-32.64 16.69c-6 8.52-6.97 15.79-6 26 1.58 5.23 3.77 8.89 7.81 12.56 5.7 2.57 9.78 2.76 15.87 1.38 5.48-2.46 8.15-5.09 10.42-10.65 2.12-7.81 1.94-16.39-.79-23.98-5.35-7.65-5.35-7.65-10.31-9.31-6.67-.64-11.92-.84-17 4"/><path fill="#a88bd0" d="M1034 124c.41.27.41.27 2.46 1.66 3.31 3.05 4.83 6.24 6.79 10.28.69 1.39 1.37 2.78 2.08 4.21 4.84 11.14 3.95 24.77-.07 36.05-4.06 9.04-11.28 16.39-20.45 20.18-9.74 3.61-18.08 2.98-27.81-.38-9.69-4.69-16.74-12.7-20.38-22.81-3.34-12.09-3.56-25.91 2.38-37.19 1.94-3.31 1.94-3.31 4-6l2.12-3c13.75-14.34 33.31-13.82 48.88-3m-36.25 17.38c-4.63 6.94-4.47 14.56-3.75 22.62 1.18 4.9 2.86 8.83 6.44 12.5 5.98 3.5 9.54 3.85 16.56 2.5 5.63-2.71 8.08-6.57 11-12 2.72-7.96 1.15-16.47-2-24-2.68-4.24-5.26-6.33-10-8-8.01-1.07-12.61.42-18.25 6.38"/><path fill="#aa92d6" d="M1108.438 119.125c7.08 5.71 10.74 10.95 12.56 19.88.39 4.47.38 8.91.33 13.41 0 1.24 0 2.49-.01 3.78 0 2.62-.02 5.24-.04 7.86-.03 4.03-.04 8.05-.04 12.08l-.03 7.65c-.01 1.21-.01 2.42-.02 3.67l-.03 3.36c0 .98-.01 1.96-.02 2.97-.14 2.22-.14 2.22-1.14 3.22-3.03.07-6.03.09-9.06.06-.85-.01-1.71-.01-2.59-.02-2.11-.01-4.23-.03-6.35-.04-.01-1.51-.03-3.01-.04-4.56-.06-5.6-.14-11.2-.22-16.8-.03-2.41-.06-4.83-.08-7.25-.04-3.49-.09-6.97-.15-10.46 0-1.07-.01-2.15-.02-3.25-.11-6.12-.66-11.12-3.49-16.68-4.77-2.39-8.79-2.67-14-2-3.53 1.7-5.4 2.78-7.13 6.31-.9 2.79-1.14 5-1.17 7.92-.02 1.02-.03 2.03-.05 3.08l-.03 3.29c-.01 1.13-.03 2.25-.05 3.41-.05 3.58-.09 7.16-.13 10.73-.04 3.6-.09 7.19-.14 10.79-.03 2.23-.06 4.47-.08 6.7-.11 7.65-.11 7.65-1.22 8.77h-18v-79h19c.33 1.98.66 3.95 1 6l2.44-2.32c9.15-6.9 19.72-7.48 30-2.56"/><path fill="#d69dbf" d="M150 125h1c1.03 9.09 2.06 18.19 3.08 27.28.47 4.23.95 8.45 1.43 12.68.55 4.87 1.1 9.75 1.64 14.63.17 1.49.34 2.97.52 4.51 1.1 9.95 1.83 19.89 2.33 29.9-4 2-4 2-7 2-1.35-2.71-1.07-5.01-1-8-1.59-.14-3.18-.29-4.81-.44-1-.09-1.99-.18-3.01-.27-1.05-.1-2.1-.19-3.18-.29-2.06-.19-4.12-.38-6.19-.56-1.59-.15-3.17-.29-4.81-.44v14h-6v-7h-3v7h-6c.01-.93.02-1.85.04-2.81 0-1.2.01-2.39.02-3.63.01-1.19.03-2.39.04-3.62C115 207 115 207 114 206c-2.61.23-5.21.53-7.81.88-1.43.18-2.86.36-4.33.55C98 208 98 208 94 209l-2 7-7-2c1.47-14.92 3.03-29.84 4.62-44.75.24-2.17.47-4.35.7-6.52L92 147c3.52 3.52 3.55 5.2 4 10 .46-.15.46-.15 2.81-.94 2.07-.68 4.13-1.37 6.19-2.06v-2l4-1v-3h2l1 2c1.23-4.77 1.1-9.41 1.06-14.31-.01-1.63-.02-3.25-.02-4.93-.02-1.24-.03-2.48-.04-3.76l2 1c.62 2.56.62 2.56 1 5h1v12h-2v2c1.34-.07 2.67-.14 4.05-.22 1.75-.09 3.51-.19 5.26-.28.88-.05 1.76-.1 2.67-.14 6.68-.36 6.68-.36 10.02-.36 2.07-.31 4.13-.65 6.19-1 1.08-.19 2.17-.37 3.29-.56.83-.15 1.66-.29 2.52-.44l-.06-4.44c-.01-4.93.43-9.67 1.06-14.56m-35 26c-.49 2.35-.88 4.72-1.22 7.1-.21 1.44-.42 2.88-.64 4.37-.1.76-.1.76-.64 4.59-2.59 18.16-2.59 18.16-4.5 25.94 1.1-.16 2.21-.33 3.34-.5 5.1-.55 10.05-.61 15.16-.56.92 0 1.84.01 2.78.01 2.24.01 4.48.03 6.72.05-.81-5.96-1.62-11.93-2.45-17.89l-.84-6.09q-.585-4.365-1.2-8.73c-.12-.92-.24-1.83-.37-2.77-.31-2.19-.72-4.36-1.14-6.52-2.6-1.3-4.6-1.17-7.5-1.19-.49 0-.49 0-2.97-.04C117 149 117 149 115 151m-9 45-1 2h35c-.16-.5-.16-.5-1-3-11.47-2.28-22.01-3.69-33 1m-3 5-2 4 2.97-.49c4.24-.54 8.31-.62 12.59-.61.8 0 .8 0 4.85.01l5.03.03c1.7 0 3.4.01 5.1.01 4.16.01 8.31.03 12.46.05-3.64-3.94-5.59-4.63-11-5-21.43-.76-21.43-.76-30 2m17 6v1h6v-1z"/><path fill="#a48bd4" d="M1178.438 122.25c3.06 3.29 4.76 6.65 6.56 10.75l-13 8-5-5c-4.53-2.7-6.51-3.06-11.81-2.37-4.19 1.37-4.19 1.37-6.19 4.37.05 2.53.05 2.53 1 5 2.3 1.44 2.3 1.44 5.32 2.56 1.08.42 2.16.83 3.28 1.26 3.2 1.11 6.42 2.12 9.65 3.12 7.12 2.33 11.96 5.35 16.19 11.75 2.92 6.18 3.18 11.55 2.56 18.31-3.36 8.85-8.26 12.92-16.5 16.98-8.97 3.65-18.73 2.71-27.5-.98-7.15-3.6-11.15-8.01-15-15 1-3 1-3 3.62-4.64 1.07-.53 2.15-1.06 3.26-1.61 1.07-.54 2.14-1.08 3.24-1.64 2.88-1.11 2.88-1.11 5.88-.11l1.94 2.94c2.06 3.06 2.06 3.06 6.06 5.06 5.36.76 9.62.88 14.25-2.06 1.75-2.94 1.75-2.94 1.57-6.75-.27-1.05-.54-2.11-.82-3.19-1.54-.39-3.09-.78-4.68-1.19-12.09-3.31-23.58-6.58-30.32-17.81-2.41-6.81-2.73-12.85.1-19.62 4.19-7.85 9.06-10.5 17.28-13.69 10.75-2.04 19.85-.47 29.06 5.56"/><path fill="#e5a5bc" d="M87 114h1c-.6 11.8-2.44 23.4-4.25 35.06-.16 1.02-.31 2.03-.47 3.07-1.92 12.48-3.89 24.94-6.09 37.37-.2 1.11-.39 2.21-.59 3.35-.89 4.87-1.84 9.51-3.6 14.15-17.7-6.38-31.14-24.03-39.11-40.3-7.47-16.82-7.47-16.82-5.89-24.7l3 4c2.11-.57 4.21-1.15 6.31-1.75 1.17-.32 2.35-.65 3.55-.98C44 142 44 142 47 138h3l1-2c2.26-.53 2.26-.53 5.12-.94 4.69-.76 8.55-2.08 12.88-4.06h3c.16-.5.16-.5 1-3l3.75.12C81 128 81 128 85 126c-.21-.91-.41-1.81-.62-2.75-.46-3.94.89-5.79 2.62-9.25"/><path fill="#b48cbd" d="M124 63c2.62.56 2.62.56 5 2 2.24 4.47 2.56 8.06 3 13h7v3h-3l-1 16h-1c-.08-5.46.08-10.62 1-16-.33.16-.33.16-2 1v18h1c.16 1.48.16 1.48 1 9l2-13 5 1v-2h2v2h2l-1-16h1c2.91 21.11 4.64 41.69 4 63-8.68 3.01-14.56 3.82-23 0-.94-9.91-1.31-19.8-1.56-29.75-.05-1.53-.09-3.06-.13-4.63-.27-9.88-.36-19.74-.31-29.62l-5-1c-.03.85-.05 1.71-.08 2.59-.5 17.14-1.07 34.28-1.92 51.41-.5.16-.5.16-3 1l-1-6-1 7 2 1h-2l1 13c-.5.33-.5.33-3 2v-3l-3 5-3-1v2c-3.25 2.32-6.06 3.44-10 4-5.93-11.86-.98-30.09.5-42.94l.72-6.44C96.81 103.41 97.4 98.21 98 93l3 4c1.16-.16 1.16-.16 7-1l1-13h1l2 22V81l2 4 1-4 2-1-3-1v-2h-2l1-8h2v3h2l1-3c1.06 2.38 1.06 2.38 2 5l-1 2 6-1 1-4 1-3-7-2zm7 57v6h1v-6z"/><path fill="#eca8bc" d="M158 102c2.49 4.98 1.55 6.82 0 12h2l3.03 6.84c.63 1.4 1.28 2.79 1.97 4.16l-2 1v11h4v4h-3l1 4c.04 2.33.04 4.67 0 7l4 1-1 2c8.88-1.88 8.88-1.88 10-3 2.67-.04 5.33-.04 8 0v-2c6.38-4.91 12.1-6.13 20-7 .99-.11 1.97-.22 2.99-.34 2.34-.24 4.67-.45 7.01-.66-.16-.66-.16-.66-1-4l-4-1c4-2 4-2 8-1-.79 19.19-9.45 36.7-22 51-.31.38-.31.38-1.86 2.29-6.17 7.41-13.91 14.49-23.14 17.71a64 64 0 0 1-3.08-12.2c-.1-.61-.1-.61-.57-3.67-.19-1.3-.39-2.61-.59-3.95-.21-1.37-.42-2.74-.64-4.15-.67-4.38-1.33-8.77-2-13.15-.43-2.87-.87-5.74-1.31-8.61-1.08-7.04-2.14-14.09-3.19-21.14-.41-2.76-.83-5.52-1.25-8.28-.59-3.91-1.17-7.81-1.75-11.72-.18-1.17-.36-2.34-.55-3.55-.15-1.07-.31-2.15-.47-3.26-.14-.93-.28-1.87-.43-2.83-.22-3.16.42-5.66 1.83-8.49"/><path fill="#ef9db4" d="M465.625 114.75c1.13-.01 2.25-.01 3.41-.02 2.97.27 2.97.27 5.97 2.27l-2 20c-2.01-.23-4.01-.45-6.07-.69-5.48-.41-9.16-.35-13.93 2.69-5.35 5.63-5.18 10.77-5.29 18.21-.01 1.01-.03 2.02-.05 3.06-.06 3.22-.11 6.44-.16 9.67-.07 4.24-.15 8.47-.22 12.71-.02.98-.03 1.95-.04 2.96-.08 3.99-.27 7.5-1.24 11.39h-19v-80h19c.32 1.98.66 3.96 1 6 1.05-.95 2.1-1.9 3.18-2.87 5.27-4.32 8.66-5.41 15.44-5.38"/><path fill="#ad8ed0" d="M960 122c8.24 8.59 8.45 20.88 8.33 32.17 0 1.2-.01 2.4-.01 3.64 0 2.51-.02 5.03-.04 7.54-.03 3.87-.04 7.73-.05 11.6 0 2.45-.02 4.89-.03 7.34 0 .58 0 .58-.01 3.52-.07 8.07-.07 8.07-1.19 9.19-3.03.07-6.03.09-9.06.06-.86 0-1.71-.01-2.59-.01-2.12-.01-4.23-.03-6.35-.05-.01-.77-.01-.77-.04-4.66-.06-5.73-.14-11.45-.22-17.17-.04-2.48-.06-4.95-.09-7.43-.03-3.56-.08-7.12-.14-10.68 0-1.1-.01-2.2-.02-3.34-.11-5.88-.48-10.49-3.49-15.72-3.53-2.35-5.03-2.21-9.19-2.12-.54 0-.54 0-3.29.05-.83.02-1.66.05-2.52.07l-1-4h-8v-2l-2-1h3l1-4c11.18-10.55 24.21-11.72 37-3"/><path fill="#f1aebc" d="M154 163h1c.65 5.31 1.3 10.62 1.94 15.94l.55 4.48c1.22 10.18 2.02 20.33 2.51 30.58-4 2-4 2-7 2-1.35-2.71-1.07-5.01-1-8-1.59-.14-3.18-.29-4.81-.44-1-.09-1.99-.18-3.01-.27-1.05-.1-2.1-.19-3.18-.29-2.06-.19-4.12-.38-6.19-.56-1.59-.15-3.17-.29-4.81-.44v14h-6v-7h-3v7h-6c.01-.93.02-1.85.04-2.81 0-1.2.01-2.39.02-3.63.01-1.19.03-2.39.04-3.62C115 207 115 207 114 206c-2.61.23-5.21.53-7.81.88-1.43.18-2.86.36-4.33.55C98 208 98 208 94 209l-2 7-7-2c1.57-16.01 3.27-32.01 5-48h1c1.61 8.62 2.32 15.49 0 24 3.47-.46 6.67-.89 10-2l3-4h5v-6h2c-.07.76-.14 1.52-.22 2.3-.05.5-.05.5-.28 3.01-.05.5-.05.5-.28 2.99-.22 2.7-.22 2.7-.22 5.7.82-.16 1.64-.32 2.49-.49 3.92-.57 7.67-.64 11.63-.63 1.39-.01 2.77-.01 4.2-.01C132 191 132 191 136 192c-.33-1.16-.66-2.31-1-3.5-.96-4.34-1.16-8.08-1-12.5h2c3.12 7.5 3.12 7.5 2 12 5.68 1.6 9.62.17 15-2l1-2c-.5-.16-.5-.16-3-1 .15-.44.15-.44.94-2.69 1.41-5.74 1.72-11.42 2.06-17.31m-48 33-1 2h35c-.16-.5-.16-.5-1-3-11.47-2.28-22.01-3.69-33 1m-3 5-2 4 2.97-.49c4.24-.54 8.31-.62 12.59-.61.8 0 .8 0 4.85.01l5.03.03c1.7 0 3.4.01 5.1.01 4.16.01 8.31.03 12.46.05-3.64-3.94-5.59-4.63-11-5-21.43-.76-21.43-.76-30 2m17 6v1h6v-1z"/><path fill="#a78dd3" d="M1057 119h17l1 9h3c.75 2.19.75 2.19 1 5-1.28 1.71-2.62 3.37-4 5-.75 2.81-.75 2.81-1 5h1v53h-18z"/><path fill="#d59cbe" d="M87 114h1c-1.35 21.76-1.35 21.76-5 32-.16-.5-.16-.5-1-3h-2c.16.82.16.82 1 5-8.29 5.58-8.29 5.58-11.75 7.62C67 157 67 157 64.81 159.06c-3.44 2.38-6.32 2.7-10.39 3.38-3.34.77-5.63 2.62-8.42 4.56-4.38 1.25-4.38 1.25-8 2v-2h-4c-.99-2.35-1.97-4.71-2.94-7.06-.54-1.31-1.09-2.62-1.65-3.98-1.34-3.76-2.18-6.98-2.41-10.96.33-.5.33-.5 2-3l2 4c2.11-.57 4.21-1.15 6.31-1.75 1.17-.32 2.35-.65 3.55-.98C44 142 44 142 47 138h3l1-2c2.26-.53 2.26-.53 5.12-.94 4.69-.76 8.55-2.08 12.88-4.06h3c.16-.5.16-.5 1-3l3.75.12C81 128 81 128 85 126c-.21-.91-.41-1.81-.62-2.75-.46-3.94.89-5.79 2.62-9.25"/><path fill="#7e7ab3" d="M155 30c.16.5.16.5 1 3l5 1-1 3c-.89-.68-1.77-1.36-2.69-2.06C154 33 154 33 151.31 33 149 34 149 34 146 38l4 3v2c-5.61.97-10.24.95-15.88.06-15.54-2.4-30.78-.54-44.86 6.99C87 51 87 51 82 51l-1-5-3-1v-5h2l2-5h2l2-4c17.97-10.41 50.71-10.64 69-1"/><path fill="#bc90bd" d="M109 83h1l2 22 1-11c2.06-3.19 2.06-3.19 4-5 1.11 4.42 1.1 8.2 1.06 12.75-.01 1.54-.02 3.08-.02 4.67-.02 1.18-.03 2.36-.04 3.58l-2 1 1 2c.07 3.38.09 6.74.06 10.12 0 .95-.01 1.89-.01 2.87-.01 2.34-.03 4.67-.05 7.01-.33.16-.33.16-2 1l-1-6-1 7 2 1h-2l1 13c-.5.33-.5.33-3 2v-3l-3 5-3-1v2c-3.25 2.32-6.06 3.44-10 4-5.93-11.86-.98-30.09.5-42.94l.72-6.44C96.81 103.41 97.4 98.21 98 93l3 4c1.16-.16 1.16-.16 7-1z"/><path fill="#9288bd" d="m144 59 2 4c3.12.75 3.12.75 6 1v2h-8c.16.7.32 1.4.48 2.11.55 3.06.73 5.97.84 9.07l.12 3.5.12 3.63c.05 1.22.09 2.44.13 3.69.11 3 .21 6 .31 9h-2l-1 1-6-2c-.05.89-.1 1.78-.15 2.7-.07 1.17-.15 2.34-.23 3.55-.06 1.16-.13 2.32-.21 3.52C136 109 136 109 134 113c-.26-10.85.4-21.26 2-32h3v-3l-3-1 2-6-1-1-2.88.25c-1.03-.08-2.06-.16-3.12-.25-1.69-2.5-1.69-2.5-3-5h-8v2c-.33.16-.33.16-2 1l-1 4h-2v-3c-2.34.26-4.68.59-7 1-1.43 2.86-.6 4.93 0 8l10 1-1 2h-2l-1 11h-1V81l-3 1-1 15c-1.28.12-2.56.25-3.88.38C101 98 101 98 99 100c-.7-26.61-.7-26.61 3-34h-8v-4c16.71-6.78 32.64-9.89 50-3"/><path fill="#d79ebf" d="M158 102c2.49 4.98 1.55 6.82 0 12h2l3.03 6.84c.63 1.4 1.28 2.79 1.97 4.16l-2 1v11h4v4h-3l1 4c.04 2.33.04 4.67 0 7l4 1-1 2c8.88-1.88 8.88-1.88 10-3 2.67-.04 5.33-.04 8 0v-2c6.38-4.91 12.1-6.13 20-7 .99-.11 1.97-.22 2.99-.34 2.34-.24 4.67-.45 7.01-.66-.16-.66-.16-.66-1-4l-4-1c4-2 4-2 8-1-.46 8.54-2.24 15.92-5 24-1.16.12-2.32.24-3.51.37-1.52.16-3.05.33-4.61.51-.76.08-.76.08-4.58.49-3.68.54-6.83 1.31-10.3 2.63v3c-.4.02-.4.02-2.45.11-1.07.07-2.14.13-3.24.2-1.05.06-2.11.12-3.2.18-3.37.55-5.25 1.71-8.11 3.51-6.16.42-6.16.42-9-1-.59-2.45-.59-2.45-1.07-5.74-.18-1.23-.37-2.46-.55-3.72-.19-1.34-.38-2.68-.58-4.06-.2-1.36-.4-2.73-.6-4.14-.42-2.89-.84-5.79-1.25-8.68-.63-4.44-1.28-8.88-1.94-13.32-.4-2.81-.81-5.61-1.21-8.42-.19-1.33-.39-2.67-.59-4.04-.18-1.24-.35-2.48-.53-3.75-.16-1.09-.31-2.18-.47-3.3-.25-3.32.3-5.85 1.79-8.83"/><path fill="#daa0bf" d="m113 127 2 1c.62 2.56.62 2.56 1 5h1v12h-2v2c2.81-.16 2.81-.16 17-1l-1 10h-1v-6c-2.15-.03-4.29-.05-6.44-.06-1.19-.01-2.39-.03-3.62-.04-2.94.1-2.94.1-3.94 1.1-.37 1.99-.68 4-.97 6-.18 1.22-.36 2.43-.54 3.69-.18 1.27-.36 2.55-.55 3.87-.19 1.29-.38 2.57-.57 3.89-.46 3.18-.92 6.37-1.37 9.55h-3v6c-.93.27-1.86.54-2.81.81C103 186 103 186 100 189c-3.56 1.25-3.56 1.25-7 2l-2-1c.08-.71.17-1.43.25-2.16.11-.96.21-1.92.31-2.9.11-.94.21-1.88.32-2.85.14-3.49-.37-6.64-.88-10.09-.31-8.4-.03-16.66 1-25 3.52 3.52 3.55 5.2 4 10 .46-.15.46-.15 2.81-.94 2.07-.68 4.13-1.37 6.19-2.06v-2l4-1v-3h2l1 2c1.23-4.77 1.1-9.41 1.06-14.31-.01-1.63-.02-3.25-.02-4.93-.02-1.24-.03-2.48-.04-3.76"/><path fill="#f7b2bc" d="M79 173c-.92 11.35-2.05 23.28-6 34-10.49-3.78-20.1-12.41-27-21v-4c2 1 2 1 3 2 5.3-.62 10.13-2.77 14.56-5.69 2.99-1.6 5.1-1.54 8.44-1.31l1-3c4.88-1 4.88-1 6-1"/><path fill="#dc9cbc" d="M64 134h3l3 4c-1 3-1 3-3.47 4.32-1 .41-2 .82-3.03 1.24-5.4 2.24-5.4 2.24-6.5 4.44l2 1c-3.61 2.71-6.9 4.54-10.94 6.5-8.96 4.37-8.96 4.37-12.06 6.5-.81 2.69-.81 2.69-1 5-2.79-3.71-4.17-6.51-5.75-10.81-.45-1.18-.9-2.37-1.36-3.58-.97-3.95-.72-6.66.11-10.61l3 4c2.11-.57 4.21-1.15 6.31-1.75.59-.16.59-.16 3.55-.98C44 142 44 142 47 138c3.12-.62 3.12-.62 7-1 8.81-1.81 8.81-1.81 10-3"/><path fill="#9683bb" d="m116.563 56.938 3.44.06-1 6c.99.17.99.17 6 1v1h-5v2c-.33.17-.33.17-2 1l-1 4h-2v-3c-2.35.26-4.68.6-7 1-1.43 2.86-.6 4.94 0 8l10 1-1 2h-2l-1 11h-1v-11l-3 1-1 15c-1.28.13-2.56.25-3.88.38-4.12.62-4.12.62-6.12 2.62-.7-26.6-.7-26.6 3-34h-8v-4c5.9-2.89 11.42-4 18-4 1-1 1-1 4.56-1.06"/><path fill="#f1acbc" d="M154 163h1c.65 5.31 1.3 10.62 1.94 15.94.18 1.48.36 2.96.55 4.48 1.22 10.18 2.02 20.33 2.51 30.58-4 2-4 2-7 2-1.35-2.71-1.07-5.01-1-8l-11-1v-2h4v-2l-3-1v-5h-3l-1-6-3-1c-.94-4.72-1.08-9.19-1-14h2c3.12 7.5 3.12 7.5 2 12 5.68 1.6 9.62.17 15-2l1-2-3-1c.31-.89.62-1.77.94-2.69 1.41-5.74 1.72-11.42 2.06-17.31"/><path fill="#a488d2" d="M1057 119h17l1 9h3c.75 2.19.75 2.19 1 5-1.94 2.69-1.94 2.69-4 5v2c-1.3.14-2.6.29-3.94.44-4.06.56-4.06.56-5.06 1.56q-3 .06-6 0v-7h-2v61h-1z"/><path fill="#ca91be" d="M646 85c5.85 1 8.14 4.12 11.45 8.68 1.81 2.7 3.39 5.28 4.55 8.32-1.48 4.43-4.26 5.09-8.31 7.25-1.34.73-2.68 1.45-4.05 2.2C646 113 646 113 642 112c-1.56-1.93-1.56-1.93-3-4.31-2.07-3.3-4.06-6.09-7-8.69l4.19-2.06c4.6-2.54 7.13-5.36 9.81-9.94z"/><path fill="#e2a1bd" d="M216.688 135.375c.76.21 1.53.41 2.31.62-.43 6.25-1.01 12.03-3 18-.66-.32-1.32-.65-2-1-3.43.41-6.83.87-10.25 1.38-11.57 1.63-23.07 2.29-34.75 2.62 4.26-4.25 7.39-4.95 13.38-5.12l3.62.12v-2c6.38-4.9 12.1-6.13 20-7 .99-.11 1.98-.22 2.99-.33 2.34-.25 4.68-.46 7.01-.67-.16-.65-.16-.65-1-4-1.32-.33-2.64-.65-4-1 3-2 3-2 5.69-1.62"/><path fill="#cb97be" d="M87 114h1c-1.35 21.76-1.35 21.76-5 32-.16-.5-.16-.5-1-3-.98.36-1.95.72-2.96 1.09-1.27.47-2.54.93-3.85 1.41-1.27.46-2.53.93-3.83 1.41C68 148 68 148 65 148l-1-2-4-1 9-5-2-6c-.99.45-1.98.91-3 1.38-10.1 4.1-10.1 4.1-16 2.62h2l1-2c2.26-.53 2.26-.53 5.12-.94 4.69-.76 8.55-2.08 12.88-4.06h3l1-3 3.75.12C81 128 81 128 85 126c-.21-.91-.41-1.81-.62-2.75-.46-3.94.89-5.79 2.62-9.25"/><path fill="#efa8ba" d="M65 161v2c.83.16.83.16 5 1 .16.5.16.5 1 3-3.04 2.22-5.54 3.87-9.19 4.88-7.13 2.1-13.32 5.14-17.81 11.12-1.51-2.29-3-4.58-4.5-6.88-.84-1.27-1.67-2.55-2.53-3.86C35 169 35 169 35 167h3v2c8.48-3.65 8.48-3.65 12.38-6.25 4.94-2.38 9.23-2.1 14.62-1.75"/><path fill="#c2a2d3" d="M864 119h18v7h-1v-6h-15v75c9-2 9-2 12-3 .16-.33.16-.33 1-2l1 2c.02-6.46.04-12.92.05-19.38l.03-6.59c.01-3.16.01-6.32.02-9.48 0-.98.01-1.96.01-2.97 0-4.34-.16-8.35-1.11-12.58h4v56h-18c-1-1-1-1-1.12-4.04 0-1.37 0-2.73.01-4.14v-4.67c0-1.7.01-3.4.01-5.09 0-1.73.01-3.45.01-5.18 0-4.55.01-9.09.02-13.64.01-4.64.02-9.28.02-13.92.01-9.11.03-18.21.05-27.32"/><path fill="#eca6ba" d="M204 161c.12.8.25 1.61.38 2.44.2.84.41 1.69.62 2.56l2 1v2c-.82.45-1.65.91-2.5 1.38-.82.53-1.65 1.07-2.5 1.62v4c-19 .18-19 .18-27-1l1-2-10-1 1-2c.53.03.53.03 3.19.19 3.81-.19 3.81-.19 6.15-1.69 3.24-1.83 5.29-1.81 8.97-1.69.54.02.54.02 3.24.08.81.04 1.62.07 2.45.11v-3c4.55-2.67 7.74-3.32 13-3"/><path fill="#9d8ebf" d="M124 63c2.62.56 2.62.56 5 2 2.27 4.54 2.72 7.96 3 13l-2 4h-3v16c-2-2-2-2-2.2-5.7.03-1.46.05-2.92.08-4.42.01-1.47.03-2.94.05-4.45.02-1.13.05-2.26.07-3.43l-5-1c-.03.85-.05 1.71-.08 2.59-.5 17.14-1.07 34.28-1.92 51.41h-1c-.06-1.25-.12-2.51-.18-3.8-.09-1.63-.17-3.27-.26-4.95-.08-1.62-.16-3.25-.24-4.92C116 115 116 115 115 111c.5-.16.5-.16 3-1-.14-2.79-.29-5.58-.44-8.38-.08-1.55-.16-3.1-.24-4.71C117 93 117 93 116 91l-2 3h-2V81l2 4 1-4 2-1-3-1v-2h-2l1-8h2v3h2l1-3c1.06 2.38 1.06 2.38 2 5l-1 2 6-1 1-4 1-3-7-2z"/><path fill="#f3a8b8" d="M79 173c-.23 3.89-.55 6.38-2.88 9.56-5.19 4.05-12.65 9.56-19.5 9.38-3.73-1.34-5.29-3.82-7.62-6.94 1.51-.58 3.01-1.16 4.56-1.75 3.32-1.31 6.11-2.65 9.19-4.5 3.46-1.86 5.39-2.13 9.25-1.75l1-3c4.88-1 4.88-1 6-1"/><path fill="#c8a0ce" d="M809 141h2c.03 7.81.04 15.63.05 23.44l.03 7.99c.01 3.81.01 7.63.02 11.44 0 1.2.01 2.4.01 3.63v3.34c.01.97.01 1.95.01 2.95C811 196 811 196 810 197h-18v-49h1c1.87 15.71 2.22 31.18 2 47h14z"/><path fill="#947eb8" d="M142 67h1q.765 5.25 1.5 10.5c.14.98.29 1.96.43 2.98.78 5.55 1.23 10.89 1.07 16.52h-2l-1 1-6-2c-.05.89-.1 1.78-.15 2.7-.07 1.17-.15 2.34-.23 3.55-.06 1.16-.13 2.32-.21 3.52C136 109 136 109 134 113c-.26-10.85.4-21.26 2-32h3l-1-6h2c.14-1.13.29-2.27.44-3.44C141 68 141 68 142 67"/><path fill="#8a7eb8" d="m116.563 56.938 3.44.06-1 6c.99.17.99.17 6 1v1h-5v2c-.33.17-.33.17-2 1l-1 4h-2v-3l-11 1-1-5c-.33.17-.33.17-2 1-2.34.04-4.67.05-7 0v-4c5.9-2.89 11.42-4 18-4 1-1 1-1 4.56-1.06"/><path fill="#e1a5c0" d="M84 142c-.68 10.46-2.28 20.68-4 31l-2-1c-.62-2.56-.62-2.56-1-5h-2v-3l-8-2v-3l-3-1c3.94-3.54 8.09-5.55 12.89-7.66C79 149 79 149 80 145v-2c3-1 3-1 4-1"/><path fill="#b387c5" d="M851 141h1v55h-17v-51h1v42l2 1-1 4c3.87.97 7.04 1.08 11 1 1.35-2.71 1.07-5.01 1-8h-1q-.06-3 0-6l1-1c.09-2.36.11-4.73.1-7.1 0-.72 0-.72-.01-4.36l-.03-4.6c0-1.52-.01-3.05-.01-4.61-.01-3.78-.03-7.55-.05-11.33h2z"/><path fill="#a488be" d="M131 81c.02 6.74.04 13.49.05 20.23l.03 6.88c.01 3.3.01 6.6.02 9.9 0 1.03.01 2.05.01 3.11 0 4.43-.14 8.55-1.11 12.88-.16-.5-.16-.5-1-3h-2c-.2-5.17-.38-10.33-.56-15.5-.06-1.44-.11-2.88-.17-4.36-.33-9.78-.06-19.39.73-29.14 3-1 3-1 4-1"/><path fill="#da8aac" d="M484 78h17v69h-1V83c-7.01-1.4-7.01-1.4-10.63.07C487 85 487 85 486.25 88.09c-.06 1.25-.12 2.49-.18 3.77-.03.67-.03.67-.22 4.07-.05 1.4-.11 2.81-.16 4.26-.08 1.41-.15 2.83-.22 4.29-.18 3.51-.33 7.01-.47 10.52h-1z"/><path fill="#e0b4cd" d="M121 205v2h4l-1-2c.99.16.99.16 6 1v14h-6v-7h-3v7h-6v-13c4-2 4-2 6-2"/><path fill="#c998c0" d="M87 114h1c-1.35 21.76-1.35 21.76-5 32l-1-3c-.72.33-1.44.66-2.19 1-2.81 1-2.81 1-7.81 1 1.12-3.38 1.12-3.38 3-7 3.19-1.44 3.19-1.44 6-2l-1-4-8-2 1-2 3.75.12C81 128 81 128 85 126c-.21-.91-.41-1.81-.62-2.75-.46-3.94.89-5.79 2.62-9.25"/><path fill="#f6b0bb" d="m194 186 3 1c-6.66 8.29-14.76 16.43-25 20-1.59-4.11-2.1-5.59-1-10l3 1 1-2v4h3l-1-5 3-1v-2c3.62-1.21 4.64-.54 8 1 .43-.78.87-1.57 1.31-2.38C191 188 191 188 194 186"/><path fill="#eca6ba" d="M154 163h1c.82 5.72 1.11 11.23 1.06 17-.01 1.51-.02 3.01-.02 4.56-.02 1.14-.03 2.27-.04 3.44-1.07.45-2.15.91-3.25 1.38-7.28 3.15-7.28 3.15-8.75 4.62h-5l-1-3-3-1c-.94-4.72-1.08-9.19-1-14h2c3.12 7.5 3.12 7.5 2 12 5.68 1.6 9.62.17 15-2l1-2-3-1c.31-.89.62-1.77.94-2.69 1.41-5.74 1.72-11.42 2.06-17.31"/><path fill="#e496b4" d="M483 78h1c.03 1.04.05 2.09.08 3.17.09 3.87.19 7.74.29 11.62.07 2.5.13 5 .19 7.5l.12 4.76c.04 1.45.08 2.9.11 4.4C485 113 485 113 486 116c.04 2.33.04 4.67 0 7 .33-.16.33-.16 2-1 .09 3 .08 6 0 9l-2 2c-.28 2.25-.28 2.25-.32 5.09l-.06 3.22-.03 3.48-.06 3.56c-.06 3.76-.11 7.51-.15 11.27l-.12 7.64c-.1 6.25-.18 12.49-.26 18.74h-1c-.83-36.01-1.14-71.99-1-108"/><path fill="#eba4bb" d="M28 150h7v2c1.05-.04 2.1-.08 3.19-.12 3.55.11 5.66.59 8.81 2.12v2c-.78.38-1.56.75-2.37 1.14-.51.25-.51.25-3.07 1.55-1.01.5-2.02 1-3.06 1.51-2.5 1.8-2.5 1.8-3.35 4.51-.05.75-.1 1.51-.15 2.29-2.59-3.45-3.8-5.67-5.19-9.62-.34-.97-.69-1.93-1.04-2.92C28 152 28 152 28 150"/><path fill="#9e80b9" d="M116 89c2.35 4.69 2.2 7.54 2.12 12.75-.01 1.54-.03 3.08-.05 4.67-.02 1.18-.05 2.36-.07 3.58l-2 1 1 2c.07 3.38.09 6.74.06 10.12 0 .95-.01 1.89-.01 2.87-.01 2.34-.03 4.67-.05 7.01-.33.16-.33.16-2 1-1.44-7.63-1.49-15.32-1.75-23.06-.07-1.56-.14-3.11-.21-4.71-.05-1.49-.1-2.98-.15-4.52l-.15-4.12c.27-3.77 1.04-5.59 3.26-8.59"/><path fill="#9f94c5" d="m141 59 4 1 1 3c.99.16.99.16 6 1v2h-8c.16.66.33 1.32.5 2 .62 3.7.56 7.26.5 11h-1l-2-11-2 7h-2l-1 3-1-3 2-4c-1-1-1-1-4.06-1.06L131 70c-2-4-2-4-2-6 3.54 1.13 6.66 2.33 10 4 .14-1.11.29-2.23.44-3.38C140 61 140 61 141 59"/><path fill="#d198c2" d="M643 160c4.73 1.44 8.98 3.38 13.38 5.62 1.24.64 2.49 1.27 3.77 1.92.94.48 1.88.96 2.85 1.46-1.87 5.13-4.94 11.47-10 14l-1-4h2v-3.31c0-6.69 0-6.69 1-8.69-7.56-2.64-7.56-2.64-11-3l-4 2c1.88-4.88 1.88-4.88 3-6"/><path fill="#a799c5" d="M120 79c-.53 18.01-1.1 36.01-2 54h-1c-.06-1.25-.12-2.51-.18-3.8-.09-1.63-.17-3.27-.26-4.95-.08-1.62-.16-3.25-.24-4.92C116 115 116 115 115 111l3-1c-.14-2.79-.29-5.58-.44-8.38-.08-1.55-.16-3.1-.24-4.71C117 93 117 93 116 91c-.33.5-.33.5-2 3h-2V81l2 4 1-4c4-2 4-2 5-2"/><path fill="#eab6cb" d="M483 77h19l1 67 6-7c1.26 3.77.37 5.37-1 9-1.15.16-1.15.16-7 1V78h-18z"/><path fill="#fbb7b6" d="M287 95h1v42h20v1h-12v2c-4.52 1.13-9.67 2.16-14 0l2-7h2z"/><path fill="#fba1a8" d="m371 115 2 1v4l-4-1-1 2-3-1c-.06.78-.12 1.57-.19 2.38-.81 2.62-.81 2.62-3.19 3.93-2.62.69-2.62.69-5.62.69v2h2c-1 4-1 4-3 7-3.12.69-3.12.69-6 1 3.89-10.23 9.29-15.88 19-21z"/><path fill="#c6a1c6" d="M158 102c2.49 4.98 1.55 6.82 0 12h2l3.03 6.84c.63 1.4 1.28 2.79 1.97 4.16l-2 1v11h4v4l-4-1-1 3c-1.97-8.32-3.5-16.67-4.75-25.12-.14-.92-.28-1.83-.42-2.77-.7-4.9-1.11-8.55 1.17-13.11"/><path fill="#9278b7" d="M109 84v13c-1.28.12-2.56.25-3.88.38C101 98 101 98 99 100l1-14c.66.17.66.17 4 1v-2c4-1 4-1 5-1"/><path fill="#cfa9cd" d="M113 127c.33.17.33.17 2 1 .62 2.56.62 2.56 1 5h1v12h-2v2c2.81-.16 2.81-.16 17-1l-1 10h-1v-6c-2.12-.03-4.25-.05-6.38-.06-1.18-.01-2.36-.03-3.58-.04-3.04.1-3.04.1-5.04 1.1-2.14-5.22-2.21-9.77-2.12-15.38.01-1.61.03-3.23.05-4.89.02-1.23.05-2.46.07-3.73"/><path fill="#f1c2d4" d="M116.973 202.902c1.64 0 3.28.01 4.97.01l5.12.03c1.74 0 3.48 0 5.22.01 4.24.01 8.48.03 12.72.05v2c-5.45 1.36-10.66 1.02-16.25.94-3.75.06-3.75.06-7.75 1.06v-2c-.99.15-1.99.3-3.01.46-3.98.54-7.92.85-11.93 1.1-1.33.08-2.66.17-4.03.25-1 .06-2 .13-3.03.19v-3c6.04-.76 11.87-1.12 17.97-1.1"/><path fill="#eaa2ba" d="M213 160c-1.42 4.81-3.45 8.9-5.94 13.25-.69 1.22-1.38 2.44-2.09 3.7C203 180 203 180 200 182l-1-5 3-1-1-4c4-3 4-3 6-3v-2l-4-2 1-4c2.96-1.48 5.74-1.06 9-1"/><path fill="#e39ebc" d="M564 155h2c.14 1.05.29 2.1.44 3.19 1.25 8.5 1.25 8.5 3.56 10.81h2l3 9 6 1-3 1 3 5c-3 0-3 0-4.83-1.55-5.36-5.96-8.96-12.12-12.17-19.45-.4-.88-.81-1.76-1.23-2.67C562 159 562 159 563 156z"/><path fill="#edabc1" d="M465.5 114.75c1.14-.01 2.29-.01 3.47-.02C472 115 472 115 475 117l-2 20-7-1v-1h6v-4h-2v-11h-2l-2-3c-2.38-.29-2.38-.29-5.12-.19-1.61.06-3.22.13-4.88.19 3.57-2.38 5.27-2.27 9.5-2.25"/><path fill="#b69ad3" d="m979 136 2 4-1 2c0 2.47 0 4.93.03 7.4-.05 4.97-1.06 9.74-2.03 14.6-.34 2.33-.68 4.66-1 7h-1c-2.88-11.58-1.98-24.26 3-35"/><path fill="#e3a1bb" d="m28 142 3 4c.37-.09.37-.09 2.25-.56C36 145 36 145 40 146v2l1 2h4v-2h2v2l2 1h-2l1 4c-4.35-.96-8.68-1.92-13-3v-2c-.95.21-1.9.41-2.88.62-1.03.13-2.06.25-3.12.38l-2-2c.38-3.62.38-3.62 1-7"/><path fill="#ceb0ce" d="M126 106h1v25h2l2-5h1c.2 2.06.38 4.12.56 6.19.11 1.15.21 2.29.32 3.48.11 3.05-.01 5.41-.88 8.33l-2 2c-3-2-3-2-3.51-4.34-.06-.96-.11-1.93-.17-2.93-.07-1.07-.13-2.15-.2-3.26-.2-5.74-.22-11.48-.18-17.22 0-1.19.01-2.37.01-3.59.01-2.89.03-5.77.05-8.66"/><path fill="#bf8dc1" d="m765 141 3 1-1 50c-2-2-2-2-2.23-6.73q0-3.09.03-6.18c.01-1.09.01-2.17.01-3.29.01-3.48.04-6.95.07-10.42.01-2.36.01-4.71.02-7.06.02-5.77.06-11.55.1-17.32"/><path fill="#f7bbc3" d="M157 190h1c.34 3.06.67 6.12 1 9.19.1.86.19 1.73.29 2.62.44 4.1.71 8.06.71 12.19-4 2-4 2-7 2-1.35-2.71-1.07-5.01-1-8h-5v-1l11-1z"/><path fill="#9688be" d="M142 67h1c.36 2.23.72 4.46 1.06 6.69.2 1.24.4 2.48.6 3.76.31 3.21.18 5.47-.66 8.55h-7v-5h2l-1-6h2c.14-1.13.29-2.27.44-3.44C141 68 141 68 142 67"/><path fill="#d9a4c5" d="M121 205v2c-.33.16-.33.16-2 1l8 1-3 3h-3v8h-6v-13c4-2 4-2 6-2"/><path fill="#c4b8d7" d="m135.563 77.938 3.44.06v3h-3l-1 16h-1c-.09-5.45.08-10.62 1-16-.33.17-.33.17-2 1v41c-2.68-4.01-2.27-7.56-2.23-12.22v-2.74c0-1.91.01-3.82.02-5.73.02-2.93.02-5.86.02-8.79.01-1.85.01-3.71.02-5.56v-2.67c.06-7.27.06-7.27 4.73-7.35"/><path fill="#f8abb4" d="M74 191h1c.29 10.57.29 10.57-2 16-4.75-1.88-4.75-1.88-7-3 .5-4.38 1.93-6.84 5-10h3z"/><path fill="#aaa0cc" d="M124 63c2.62.56 2.62.56 5 2 2.27 4.54 2.72 7.96 3 13l-2 4-2-1 1-3-10-1v-1l6-1 1-4 1-3-7-2z"/><path fill="#fac6cf" d="M104 197h38v4c-.6-.08-.6-.08-3.63-.5-6.43-.72-12.85-.57-19.31-.5-2.42.03-4.85.05-7.27.06-.54.01-.54.01-3.23.04C106 200 106 200 104 199z"/><path fill="#f7bfca" d="M138 191c.16.5.16.5 1 3-4 1-4 1-7.5.56-9.57-1.19-17.38-.78-26.5 2.44l-3-4c12.02-2.3 23.83-2.2 36-2"/><path fill="#ac87cb" d="m907 140 4 1-3 1c.02.54.02.54.11 3.28.13 4.08.25 8.16.37 12.24.06 1.76.11 3.51.17 5.26.33 10.14.45 20.12-.65 30.22h3v2h5v1h-9z"/><path fill="#dc8daf" d="M484 79h8v3c-.81.42-1.61.83-2.44 1.26C487 85 487 85 486.25 88.09c-.06 1.25-.12 2.49-.18 3.77-.03.67-.03.67-.22 4.07-.05 1.4-.11 2.81-.16 4.26-.08 1.41-.15 2.83-.22 4.29-.18 3.51-.33 7.01-.47 10.52h-1z"/><path fill="#9f83ce" d="M1104 139c2 3 2 3 1.64 5.38-.21.86-.42 1.73-.64 2.62-.15 3.67-.26 7.32-.32 10.99l-.06 3.21-.18 10.11c-.05 2.29-.09 4.58-.13 6.87-.11 5.61-.21 11.21-.31 16.82h12v1h-13c-.19-7.64-.37-15.27-.54-22.91l-.18-7.79c-.1-3.73-.18-7.46-.26-11.19l-.09-3.54c-.01-.54-.01-.54-.07-3.27l-.06-2.89c.2-2.41.2-2.41 2.2-5.41"/><path fill="#fabac2" d="M417 147h1v15h-53l1 7h-3l1-8h53z"/><path fill="#b59dc9" d="M109 83h1l1 20-2 1v-5c-1.07.47-2.14.95-3.25 1.44C102 102 102 102 98 103v8h-1c-.1-6.11.23-11.93 1-18l3 4c1.16-.16 1.16-.16 7-1z"/><path fill="#ef94af" d="M428 118h6l-1 5-4 1v44h-1z"/><path fill="#fca3aa" d="M366 169c4 4.88 4 4.88 4 6h-5l-2 4c-1.67 2-3.33 4-5 6l-2 4c-5-6.75-5-6.75-5-9l4 1c6.47-4.93 6.47-4.93 8-8h3z"/><path fill="#fba1a3" d="M340 133h2c-.56 4.19-1.94 6.82-4.38 10.25-.6.87-1.21 1.74-1.83 2.64C334 148 334 148 331 149l-1-5 3-1-1-4 2-3h5z"/><path fill="#c494bd" d="M87 114h1c-.11 2.06-.24 4.13-.38 6.19-.06 1.15-.13 2.29-.21 3.48-.53 4.3-1.32 7.24-4.41 10.33h-3v-2l-8-2 1-2 3.75.12C81 128 81 128 85 126c-.21-.91-.41-1.81-.62-2.75-.46-3.94.89-5.79 2.62-9.25"/><path fill="#dd9cbd" d="M167 162h5v4l7 1c-3.02 2.93-4.48 3.96-8.75 4.31C167 171 167 171 166 170c-.12-3.5-.12-3.5 0-7z"/><path fill="#897eb6" d="m104 59 3 3v2h-2v4l2 2-4-1v-4c-.33.17-.33.17-2 1-2.33.04-4.67.04-7 0v-4c6.62-3 6.62-3 10-3"/><path fill="#9286bb" d="m72 54 6 2v-2h2c4 9.22 4 9.22 4 13h-5l-3 2c0-3 0-3 2-5l-1-1q-.06-3 0-6l-5-1z"/><path fill="#fba6af" d="M398 118c4.12 1.37 6.62 3.19 9.69 6.25.38.37.38.37 2.32 2.27 2.2 2.74 3.08 5.11 3.99 8.48l-3-1-1 2-.94-2.88C408 130 408 130 407 128c-2.56-.62-2.56-.62-5-1l-1-4-3-3z"/><path fill="#c48fc3" d="M751 172h1c1.12 6.62 1.12 6.62 0 10l2 1h-2v5l4 2v5h6v1h-12c-.09-8.1.14-15.95 1-24"/><path fill="#e8abc4" d="M90 166h1c1.61 8.62 2.32 15.49 0 24h6l-1 2c-3 .69-3 .69-6 1-1-1-1-1-1.13-4.25.01-7.66.18-15.15 1.13-22.75"/><path fill="#b098d6" d="M1045 171c1 3 1 3 .18 5.34-2.46 4.9-4.4 8.65-9.18 11.66 0-3.79.43-7.27 1-11h2l1-2h2v-2h3z"/><path fill="#d4b0d0" d="M25 107h1v19l2 1q.075 3.375.12 6.75c.03 1.25.05 2.51.08 3.8C28 141 28 141 26 145c-1.75-7.34-2.19-14.3-2.19-21.81v-2.75c.04-4.58.26-8.95 1.19-13.44"/><path fill="#b1a8cd" d="M101 65h2l1 4 3 2-1 3-1-3h-2c.01.84.02 1.69.04 2.55 0 .55 0 .55.02 3.33.01 1.09.03 2.18.04 3.3C103 83 103 83 102 85h2v2h-3l-1 6h-1c.56-9.34 1.17-18.68 2-28"/><path fill="#d9adcb" d="m161 140 3 1c.97 3.87 1.08 7.04 1 11l4 1-3 1v7l2 1-1 1c-.37 2.33-.7 4.66-1 7h-1c-.67-4.25-1.34-8.5-2-12.75-.19-1.21-.38-2.41-.58-3.66-.18-1.16-.36-2.32-.54-3.51-.17-1.07-.34-2.14-.51-3.24C161 144 161 144 161 140"/><path fill="#af8dbe" d="M129 110h1c.81 4.24 1.14 8.25 1.12 12.56.01 1.1.01 2.19.01 3.32-.12 2.83-.49 5.37-1.13 8.12l-1-3h-2c.14-3.13.29-6.25.44-9.38.04-.88.08-1.77.12-2.69.33-6.7.33-6.7 1.44-8.93"/><path fill="#d09bbe" d="M75 132v2l4 1v2c-1.48.5-1.48.5-9 3-.66-1.16-.66-1.16-4-7 4-1 4-1 9-1"/><path fill="#f0c2d4" d="m552 191 4 4-1 2h-23v-1h13l1-4c.99.16.99.16 6 1z"/><path fill="#a384c9" d="M966 143h1v43h-1l-1-5-2 3-1-5 3-2c.43-3.35.43-3.35.51-7.63.04-1.53.07-3.06.11-4.63.02-1.61.04-3.21.07-4.86.03-1.62.07-3.23.1-4.89.08-4 .15-7.99.21-11.99"/><path fill="#faa7aa" d="M314 97h4v2h3v2c.8.14 1.61.29 2.44.44C326 102 326 102 327 103c.31 2.88.31 2.88 0 6l-4 3c-.37-1.38-.74-2.76-1.12-4.19-1.55-4.73-3.8-6.91-7.88-9.81z"/><path fill="#e1a2c2" d="M602 175c.83.16 1.67.32 2.53.49 3.72.55 7.27.64 11.03.63 1.28.01 2.56.01 3.88.01 3-.11 5.65-.43 8.56-1.13l-2 5h-4v-2h-14l-1 4-1-2a98 98 0 0 0-6-2l2-1z"/><path fill="#b9a6de" d="M1167 130c2.89 2.89 3.6 4.35 5 8l2 2-3 1-1.94-2.88c-3.85-3.92-6.71-4.28-12.06-5.12l-3-1c4.44-1.42 8.32-2.53 13-2"/><path fill="#dda3c4" d="M594 98h8c-2.5 2-5 4-7.56 5.94-2.54 2.14-4.45 4.41-6.44 7.06l-2-5 2-2 3-4c2.69-.75 2.69-.75 5-1z"/><path fill="#dfa3c2" d="m578 89 3 3h-2l-2 4c-.33.5-.33.5-2 3v2h-5l-1 5h-2c1.29-4.6 3.01-7.66 6.06-11.31.72-.86 1.43-1.73 2.16-2.62.9-1.04 1.8-2.09 2.78-3.07"/><path fill="#eab4cb" d="M581 128h1l-.12 4.69c0 8.95 1.35 17.79 4.12 26.31l-3-1c-1.12-2.88-1.12-2.88-2-6l-1-3c-.07-2.06-.08-4.13-.06-6.19.01-1.08.02-2.17.02-3.29.02-.83.03-1.66.04-2.52l-2-1 1-4h2z"/><path fill="#efb0c2" d="m207 166 2 4c-1.27 2.76-1.27 2.76-3.25 5.69-.64.97-1.29 1.94-1.95 2.95C202 181 202 181 200 182l-1-5 3-1-1-4c4-3 4-3 6-3z"/><path fill="#e4c4dd" d="m114 145 1 2c2.81-.16 2.81-.16 17-1l-1 10h-1v-6c-2.12-.03-4.25-.05-6.38-.06-.59-.01-.59-.01-3.58-.04-3.04.1-3.04.1-5.04 1.1z"/><path fill="#9f92c4" d="m165 56 1 4 3-1c-.97 3.27-1.66 4.75-4.44 6.81C162 67 162 67 159 67l1 3-4-1 2-1c.29-.76.58-1.53.88-2.31 1.25-3 2.81-4.46 5.12-6.69z"/><path fill="#f6b6bf" d="M88 198h1v5c.99.16.99.16 6 1v2l2 1-9-1v7l4 1v2l-7-2 1-12h2z"/><path fill="#b7a4de" d="M1168 190h5v2l4 2c-8.6 3.98-14.53 5.13-24 5v-1l14-1v-6zm1 1-1 3h3v-3z"/><path fill="#cd9ec7" d="m687 120 2 1v5c-3.83 2.9-7.28 3.54-12 4 3.18-3.83 6-7 10-10"/><path fill="#bc93c0" d="M26 101h1c2.12 6.5 2.12 6.5 1 11-.02 1.73.01 3.46.06 5.19.07 5.25-.73 9.74-2.06 14.81h-1c-.11-10.39.08-20.65 1-31"/><path fill="#f9adb9" d="m174 196 1 4h2l1 4-4 3-3-1-1-9 4 1z"/><path fill="#e7adc4" d="M154 163h1c1.25 7.66 1.09 15.26 1 23l-1-2-4-1c.31-.89.62-1.77.94-2.69 1.41-5.74 1.72-11.42 2.06-17.31"/><path fill="#e5a4be" d="m519 125 3 4c-1.25 2.5-1.25 2.5-3 5h-4l-1 2-2-1v2l-2-1z"/><path fill="#b7a0cb" d="M210 82h2c5.56 13.45 5.56 13.45 6 21l-4-4h2l-2-6h-2c-1.19-3.88-2-6.92-2-11"/><path fill="#dd96b8" d="M533 117h17c-1.15 4.59-2.29 5.34-6 8l-3-2h3l-1-5h-10z"/><path fill="#a59ac8" d="M188 50c4.9 4.01 8.99 8.1 13 13l-1 2-4-2v-3l-4-2-2-4-5 1z"/><path fill="#9b90c2" d="m60 46 2 1c-1.97 3.95-3.93 5.93-7 9l-2 4-5-1c3.82-4.55 7.74-8.84 12-13"/><path fill="#f3a7b5" d="M156 191h1c.84 5.05 1.09 9.88 1 15l-11 1v-3h5l3-2c.51-2.6.51-2.6.69-5.62.06-1.01.13-2.01.2-3.04.03-.77.07-1.55.11-2.34"/><path fill="#c39fcf" d="M794 118c5.78.51 9.05 4.05 13 8l3-2 1 3-2 2c-3.44-.35-5.07-1.05-8-3v-3h-2v-2l-5-1z"/><path fill="#d0bcd8" d="M113 100h1c.03 3.1.05 6.21.06 9.31l.03 2.67c.02 6.68.02 6.68-1.09 10.02l-5 1v-3h3v-15h1z"/><path fill="#fbb2ba" d="m388 192 2 1-2 2 10-1v2c-6.78 1.9-12.89 3.41-20 3v-1c.45-.03.45-.03 2.75-.19 3.99-.99 5.02-2.46 7.25-5.81"/><path fill="#eaafc3" d="M109 178h2c-.11 1.77-.24 3.54-.38 5.31-.06.99-.13 1.97-.21 2.99C110 189 110 189 108 192l-1-3-5-1 2-4h5z"/><path fill="#e8adc6" d="M560 127h1l1 10 3 1-3 1v9l2 1h-2v6h-1c-.82-3.57-1.12-6.86-1.1-10.52.01-1.02.01-2.04.01-3.1l.03-3.19c0-1.08.01-2.15.01-3.26.01-2.64.03-5.29.05-7.93"/><path fill="#f9a6a8" d="M334 86c3.66 3.36 6.14 6.36 8 11l-1 2h-2c-2-3-2-3-3-7l-1 5c-2.61-2.61-2.7-4.38-3-8z"/><path fill="#9780b6" d="M131 81v35h-1V86h-3v-4c3-1 3-1 4-1"/><path fill="#e7aac2" d="M564 155h2c.14 1.05.29 2.1.44 3.19.44 2.97.96 5.87 1.56 8.81.34 2 .67 4 1 6-2.4-3.2-3.79-5.45-5.25-9.06-.36-.86-.71-1.72-1.08-2.6C562 159 562 159 563 156z"/><path fill="#a485bb" d="m109 100-9 5c.06 1.57.12 3.14.19 4.75.18 4.69-.13 5.17-3.19 9.25-.04-5.41.06-10.66 1-16 4.15-3.83 5.53-4.37 11-3"/><path fill="#efacbe" d="M35 167h3v2l2-1q3-.06 6 0c-2.07 3.82-3.37 5.28-7 8-4-6.75-4-6.75-4-9"/><path fill="#b098d8" d="M1077 134c3.69.31 3.69.31 7 1-.38.27-.38.27-2.31 1.62-2.92 2.58-4.16 4.84-5.69 8.38l-3-1c.62-6.62.62-6.62 4-10"/><path fill="#cbb6d6" d="M118 96h1c.17 12.36-.37 24.66-1 37h-1c-.06-1.25-.12-2.51-.18-3.8-.09-1.63-.17-3.27-.26-4.95-.08-1.62-.16-3.25-.24-4.92C116 115 116 115 115 111l3-1z"/><path fill="#9d8fc1" d="M81 63c3.9.22 5.01 1.01 7.88 3.81.35.53.35.53 2.12 3.19l-1 4c-4-1-4-1-5.81-3.88C83 67 83 67 84 64z"/><path fill="#8177b5" d="M179 45c3 1 3 1 6 4l3 1-1 3c-2.88.62-2.88.62-6 1-2.38-2.38-2.59-3.72-3-7z"/><path fill="#d9a7cc" d="M643 160c4.36 1.35 8.31 3.05 12.38 5.12 1.05.54 2.11 1.08 3.21 1.64.79.41 1.59.82 2.41 1.24-5.27 1.32-6.96-.35-11.46-2.97-3.03-1.23-4.46-.99-7.54-.03-.33.16-.33.16-2 1 1.88-4.88 1.88-4.88 3-6"/><path fill="#fba3a5" d="m323 121 1 3h2c1 4 1 4-.62 6.75C323 133 323 133 318 133c.64-1.24 1.28-2.47 1.94-3.75C322 125 322 125 323 121"/><path fill="#ec98af" d="M445 118v10h-2l-1-5h-4v-2h-2v-2c3.15-.7 5.73-1 9-1"/><path fill="#bea0c8" d="M133 100h1c.06.9.12 1.81.18 2.74.09 1.18.17 2.36.26 3.57l.24 3.55C135 113 135 113 136 116l-1 2c-.28 3.11-.45 6.23-.62 9.35-.06.44-.06.44-.38 2.65l-2 1z"/><path fill="#a284bd" d="M136 94c.99.17.99.17 6 1v3c-.82-.33-.82-.33-5-2-.05.89-.1 1.78-.15 2.7-.07 1.17-.15 2.34-.23 3.55-.06 1.16-.13 2.32-.21 3.52C136 109 136 109 134 113c-.05-2.6-.09-5.21-.12-7.81-.03-1.45-.05-2.9-.08-4.4C134 97 134 97 136 94"/><path fill="#8c87bc" d="m86 32-1 2-3 1c-.31.83-.62 1.65-.94 2.5-.35.83-.7 1.65-1.06 2.5-4 1-4 1-6 0l1-4c6.89-4 6.89-4 11-4"/><path fill="#f5a6b4" d="M170 189h2l2 6h2v2h2v3h-3l-1-2h-2l-1 2c-1.25-3.76-1.06-7.06-1-11"/><path fill="#fac9d4" d="M129.473 202.902c1.86.01 3.73.02 5.59.04.95 0 1.9 0 2.88.01 2.35.01 4.7.03 7.06.05v2c-4.06 1.01-7.45 1.16-11.63 1.19-.66 0-.66 0-4.04.04-3.33-.23-3.33-.23-5.33-2.23 1-1 1-1 5.47-1.1"/><path fill="#f69fac" d="m87 203 1 3c.66.16.66.16 4 1v7l-5-1z"/><path fill="#e4a0be" d="m534 131 4 1c-5.62 7.75-5.62 7.75-9 10 0-4 0-4 2-8z"/><path fill="#b6aed5" d="M145 60c4.05 1.23 7.44 2.7 11 5l-1 7-3-1v-4h-6v-1h6l-2-1v-2h-4z"/><path fill="#8680b8" d="M151 43c3.4 1.06 6.01 2.01 9 4l3-1 1 3c-.33.49-.33.49-2 3v-2c-.93.06-1.86.12-2.81.19C156 50 156 50 153 47z"/><path fill="#f9c8cf" d="M157 190h1c.34 3.06.67 6.12 1 9.19.1.86.19 1.73.29 2.62.44 4.1.71 8.06.71 12.19l-2-3h-4v-3l4-1z"/><path fill="#f195ad" d="M428 176h1c1.33 11.52 1.33 11.52 0 17 1.49.33 1.49.33 9 2v1h-10z"/><path fill="#aea5cd" d="M113 69h2v3h2l1-3 2 5-2 2 1 2-5 1v-2h-2z"/><path fill="#f4b8c4" d="M46 182c3.47 1.74 5.54 5.06 8 8 .95 1.13 1.9 2.27 2.88 3.44.35.42.35.42 2.12 2.56-4.22 0-5.25-1.82-8.19-4.75l-2.73-2.67C46 186 46 186 46 182"/><path fill="#f1afc2" d="M166 172h11c-2 3-2 3-5.12 3.69-.95.1-1.9.2-2.88.31l-1 6h-1z"/><path fill="#d1adce" d="M131 126h1c.2 2.06.38 4.12.56 6.19.11 1.15.21 2.29.32 3.48.11 3.05-.01 5.41-.88 8.33l-2 2-2-2 1-1c.21-2.29.37-4.58.5-6.88.39-6.79.39-6.79 1.5-10.12"/><path fill="#aca4ce" d="M125 55v3c-.42-.01-.42-.01-2.52-.07-.54-.01-.54-.01-3.29-.05-1.08-.03-2.16-.05-3.27-.08C113 58 113 58 110 60v-2l-6 1c2.76-2.76 4.97-2.62 8.81-3.12 1.23-.17 2.45-.34 3.71-.51C120 55 120 55 125 55"/><path fill="#b09cd8" d="m1138 191 9 1-1 4c.99.16.99.16 6 1-4.6 1.15-5.26.71-9.25-1.44-.89-.47-1.78-.94-2.7-1.43-.68-.37-1.35-.75-2.05-1.13z"/><path fill="#fa9598" d="m313 137-3 4c-4.19.25-4.19.25-8 0v-2h-6v-1c1.9-.17 3.79-.34 5.69-.5 1.05-.09 2.11-.19 3.2-.28 2.7-.19 5.4-.22 8.11-.22"/><path fill="#9c7fba" d="m101 92 7 1 1 4-8 1c-1-4-1-4 0-6"/><path fill="#fabdc2" d="M74 198c1.26 3.77.37 5.37-1 9-2.92-1.07-4.78-1.78-7-4 4.62-3 4.62-3 8-3z"/><path fill="#b69cd7" d="M997 172c.89.78 1.77 1.57 2.69 2.38 2.84 2.25 4.91 3.52 8.31 4.62l-1 3h-7l3-2c-.78-.25-1.57-.5-2.38-.75C998 178 998 178 996 174z"/><path fill="#fba1a6" d="m327 148 1 4c-4.62 3-4.62 3-8 3l-1-3c4.62-4 4.62-4 8-4"/><path fill="#d6b0d3" d="M697 132h6v1l5 1v1c-1.36.1-2.72.21-4.12.31-4.41.62-7.1 1.46-10.88 3.69l-1-3h2v-2h3z"/><path fill="#ea95b2" d="M467.688 130.813c1.42.06 2.85.12 4.31.19v4l-12-1c3-3 3-3 7.69-3.19"/><path fill="#af85b8" d="M114 118h2c.89 3.55 1.11 6.14 1.06 9.75-.01.98-.02 1.97-.02 2.98-.02.75-.03 1.5-.04 2.27-.33.16-.33.16-2 1-1.13-5.39-1.07-10.52-1-16"/><path fill="#eb9fb9" d="m466 116 1 2c-4 3-4 3-7.56 2.81C456 120 456 120 453 118c4.49-1.44 8.28-2.23 13-2"/><path fill="#b1a0cb" d="m112 81 3 4h2l1 8-2-2c-.33.5-.33.5-2 3h-2z"/><path fill="#c493be" d="M161 130h2v7h4v4l-4-1-1 3c-1.46-4.37-1.06-8.4-1-13"/><path fill="#baa1d8" d="m988 124 2 1c-.81 2.44-.81 2.44-2 5l-3 1v3h-2l-1 2h-2c1.51-4.97 4.57-8.19 8-12"/><path fill="#d5a3c4" d="m610.063 91.938 2.94.06v1h12v3h-18l-1-3c1-1 1-1 4.06-1.06"/><path fill="#897bb8" d="M142 67h1l1 11h-4l-1 2-1-5h2c.14-1.13.29-2.27.44-3.44C141 68 141 68 142 67"/><path fill="#8276b6" d="m116.563 56.938 3.44.06v1h-6l-2 4h-7l-1-3c5.75-1 5.75-1 8-1 1-1 1-1 4.56-1.06"/><path fill="#948ec2" d="M174 42c6.03 1.14 9.54 2.77 14 7l-4 1-3-4c-.38.09-.38.09-2.31.56C176 47 176 47 173 46z"/><path fill="#ce8cbb" d="M649 164c2.02.95 4.03 1.95 6 3v1h-6v-2c-6.75.88-6.75.88-9 2 2.64-5.28 3.6-5.47 9-4"/><path fill="#e9a4bc" d="M63 159h4v3h6v2h2l-1 3-4-1v-2l-5-1v-2l-3 1z"/><path fill="#d7accb" d="M92 147c3 3 3 3 3.19 7.19-.06 1.26-.13 2.51-.19 3.81h-2l-1 7h-1c.17-2.97.17-2.97 1-18"/><path fill="#fb969e" d="M352 144v3l-4 3c-.61 3.36-.61 3.36-.75 7.19-.06 1.27-.11 2.54-.17 3.85-.03.98-.05 1.95-.08 2.96h-1c-.05-2.79-.09-5.58-.12-8.38-.03-1.55-.05-3.1-.08-4.71.2-3.91.2-3.91 2.2-5.91z"/><path fill="#d1aecd" d="M94 129h1v11h2l-1 6-3 1c.17-2.97.17-2.97 1-18"/><path fill="#fcaeb2" d="M364 136c.99.16.99.16 6 1-.66 1.49-.66 1.49-4 9h-1l.06-3.88C365 138 365 138 364 136m-1 1h1l-1 7h-1q-.06-3 0-6z"/><path fill="#b79ed9" d="M1000 134c.99.16.99.16 6 1-.72.56-1.44 1.11-2.19 1.69-2.78 2.29-5.3 4.72-7.81 7.31v-2h-2v-2l3-2z"/><path fill="#ab89bc" d="m108 102 3 1v17l-4-1 2-2c.34-6.32.34-6.32-1-9q-.06-3 0-6"/><path fill="#d3a4cc" d="M656 93c2.96 2.96 4.41 5.17 6 9l-1 3-4 1v-3l3-3h-2l-1 2c-1.14-3.43-1-5.31-1-9"/><path fill="#bcaccf" d="M145 81h1c.34 2.5.67 5 1 7.5.19 1.39.37 2.78.56 4.22.42 4.13.51 8.13.44 12.28h-1v-6l-4-1-1-3h2v2h2z"/><path fill="#b6a4cd" d="M109 83h1l1 20-2 1v-6h-5l4-3c.61-2.92.61-2.92.75-6.19.06-1.08.11-2.17.17-3.29.03-.83.05-1.66.08-2.52"/><path fill="#9c85ba" d="M40 71c3.19.31 3.19.31 6 1-1 2-1 2-5 4a89 89 0 0 0-4 4c-.19-2.81-.19-2.81 0-6z"/><path fill="#b59dd9" d="M1030 194c-1.58.7-3.16 1.39-4.75 2.06-.88.39-1.76.77-2.67 1.16-2.58.78-2.58.78-6.58-.22 4.56-4.56 8.13-5.94 14-3"/><path fill="#c18fc7" d="M808 179h1v16h-8l4-2c2.19-3.28 2.35-4.83 2.62-8.69.08-.99.15-1.99.23-3.01z"/><path fill="#bfa7dc" d="m993 144 3 1-2 18h-1l-1-8h-1c.88-7.62.88-7.62 2-11"/><path fill="#c5b5e3" d="m1104 117 2 2-3 1v-2c-.97.19-1.94.37-2.94.56-4.53.49-8.56.06-13.06-.56l-1 2-2-2c6.59-2.61 13.12-2.19 20-1"/><path fill="#918cbe" d="m123 38 4 3c-2.81.16-2.81.16-17 1 3.34-5.01 7.32-4.35 13-4"/><path fill="#faced5" d="M128 197h14v4l-15-2z"/><path fill="#c28bc0" d="M750 191c.99.16.99.16 6 1v3h6v1h-12z"/><path fill="#e9b9cd" d="M79 156h3l-2 17-2-1c0-4.45.49-6.94 2-11h-2z"/><path fill="#cf8dbb" d="m669 157 4 1v8h-4z"/><path fill="#b39fdb" d="M1159 148c9.75 1.75 9.75 1.75 12 4l-3 1v-2h-2v2c-3.37-.55-5.08-1.05-8-3z"/><path fill="#b09bd8" d="M1101 135c3 4 3 4 3 9l-3 2c-.45-1.28-.91-2.56-1.38-3.88C1098 138 1098 138 1096 136z"/><path fill="#cd9fc5" d="M216.688 135.375c.76.21 1.53.41 2.31.62v6c-1.65.34-3.3.66-5 1 .66-.33 1.32-.65 2-1-.33-1.31-.66-2.63-1-4-1.32-.33-2.64-.65-4-1 3-2 3-2 5.69-1.62"/><path fill="#b49dd8" d="M1039 130c3.41 3.41 5.05 6.62 7 11l-1 2-3-2v-2h-2l1-4h-2z"/><path fill="#ed91ae" d="M428 118h6l-1 5-5 1z"/><path fill="#9288be" d="m101 62 2 2c-2 2-2 2-5.62 2.12L94 66v-4c2.71-1.35 4.13-.79 7 0"/><path fill="#ea94b3" d="M484 186h2c.14.74.29 1.49.44 2.25.46 2.26 1 4.51 1.56 6.75l4 1h-8z"/><path fill="#f5b7c7" d="m194 186 3 1c-1.28 1.51-2.58 3-3.88 4.5-.35.42-.35.42-2.17 2.53-.65.65-1.29 1.3-1.95 1.97h-2c1.5-4.5 3.01-7.34 7-10"/><path fill="#e7acc4" d="M134 176h2l3 8c-.33.16-.33.16-2 1-.62 2.56-.62 2.56-1 5h-1c-.94-4.72-1.08-9.19-1-14"/><path fill="#cf9bc1" d="M81 145c-1 4-1 4-4 6-4-1-4-1-6-3 7.75-3 7.75-3 10-3"/><path fill="#b294d3" d="M953 119c3.94 1.31 6.23 2.92 9 6-.33.17-.33.17-2 1v2h-3l-.88-2.94C955 122 955 122 953 121z"/><path fill="#e3a2be" d="M562 117c3 1 3 1 5 4-1 4-1 4-4 6l-2-2c.24-2.68.57-5.35 1-8"/><path fill="#a17eb7" d="M114 98h1l1 15h1v9l-1-4h-2z"/><path fill="#e0a0be" d="m566 106 6 3c-2.31 2.5-2.31 2.5-5 5h-3l-1 3c.55-3.95 1.39-7.35 3-11"/><path fill="#d98ab3" d="m570 101 4 1c-.19 2.38-.19 2.38-1 5-2.56 1.31-2.56 1.31-5 2l-1-3h2z"/><path fill="#756faf" d="m127 37 10 2v2c-6.13.09-11.92-.1-18-1v-1l8-1z"/><path fill="#e5b7d1" d="M138 210h3v8h-4c-.04-2.33-.04-4.67 0-7z"/><path fill="#e4bbd4" d="M99 210h3v8h-4c-.04-2.33-.04-4.67 0-7z"/><path fill="#b98eca" d="M866 170h1c.17 2.75.33 5.5.5 8.25.09 1.53.19 3.06.28 4.64.14 2.7.22 5.41.22 8.11l-2 2z"/><path fill="#b389c7" d="M849 178h2c.77 6.07 1.1 11.89 1 18h-1l-2-11h-1q-.06-3 0-6z"/><path fill="#ad94d6" d="M1037 177h2l2 7-5 4c0-3.79.43-7.27 1-11"/><path fill="#b09ad8" d="M1154 163c4.29.5 8.11 1.06 12 3l1 2c-4.84-.59-9.34-1.57-14-3z"/><path fill="#c8a4d1" d="M786 133c3 1 3 1 5 3l3 2h-2v8l-2-4c-1.53-2.67-2.82-4.82-5-7z"/><path fill="#a481ca" d="M937 131h8l2 4h-4v-2l-1 1c-2.33.04-4.67.04-7 0l2-1z"/><path fill="#c897bf" d="M77 130c2.31 1.88 2.31 1.88 4 4v2h-4v-2h-2v-2h-6c3-2 3-2 8-2"/><path fill="#b68fc9" d="M818 119h5c-2 4-2 4-4 6-2.62-.38-2.62-.38-5-1v-2l3-1z"/><path fill="#dabbd9" d="M700 116c6.41-.2 11.81.28 18 2l2 2-3 1v-2l-3 1v-2c-1.57.23-3.13.45-4.75.69-2.67.38-2.67.38-5.25.31z"/><path fill="#c8b0dc" d="M909 117v1c-1.75.2-3.5.38-5.25.56-.97.11-1.95.21-2.95.32-2.8.12-2.8.12-6.8-.88l-1 2-2-2c6.28-2.37 11.5-1.87 18-1"/><path fill="#b7a5cb" d="M92 73h1c.08 5.81 0 11.25-1 17h-1l-1-6h-4v-3c.99.16.99.16 6 1z"/><path fill="#c88ab7" d="M607 75h16c-.33.17-.33.17-2 1v2c-1.57.06-3.13.12-4.75.19-.88.03-1.76.07-2.67.1C611 78 611 78 607 75"/><path fill="#9986bc" d="m155 69 5 1c-1 4-1 4-5 7-.8-3.29-1.1-4.71 0-8"/><path fill="#a5a1cb" d="M142 40v2l3 2-18-2v-1c2.12-.36 4.25-.71 6.38-1.06.59-.1.59-.1 3.58-.6C140 39 140 39 142 40"/><path fill="#e3b4d2" d="m143 210 4 1v6l-4 1z"/><path fill="#d0a4cd" d="m718 172 2 4c-3.65 3.65-5.66 3.98-10.75 4.06L706 180v-1l6.74-1.95C715 176 715 176 718 172"/><path fill="#d29ec4" d="M654 174h3v2l2 1-5 6-2-4h2z"/><path fill="#d19cc0" d="m28 142 3 4 4-1c-1.25 3.74-2.63 4.19-6 6l-2-2c.38-3.62.38-3.62 1-7"/><path fill="#b8a1da" d="M1028 121c4.49 1.45 7.55 3.8 11 7v2c-4-1-4-1-7-4v-2l-4-1z"/><path fill="#bf9cd3" d="M839 119c4.32 1.4 5.07 2.1 8 6l-7 1c-1-4-1-4-1-7"/><path fill="#c7a8d7" d="M825 116c9.5.75 9.5.75 14 3-3.81 1.19-3.81 1.19-8 2l-3-3z"/><path fill="#8885bb" d="M148 28c2.88.25 2.88.25 6 1l2 4c2.62.75 2.62.75 5 1l-1 3c-.91-.62-1.81-1.24-2.75-1.88C154 33 154 33 150 31v-2z"/><path fill="#f4b4c0" d="m142 198 5 1v8h-6v-2h4v-2l-3-1z"/><path fill="#a085d2" d="M1117 187h2l1 8c-.99-.16-.99-.16-6-1 1-4 1-4 3-7"/><path fill="#9c81d2" d="M1153 183h10v2l-6 3-2-4z"/><path fill="#c3b3e4" d="M1186 168h1c.31 7.04.47 12.64-3 19-1-4-.81-6.06 0-10h1z"/><path fill="#fba2ac" d="M400 173h3v4c-2.31 1.81-2.31 1.81-5 3l-3-1c2.31-3 2.31-3 5-6"/><path fill="#dd9cbc" d="M40 160v2l-3 1v2l9 1c-4 2-4 2-8 3v-2h-3v-5c3-2 3-2 5-2"/><path fill="#e99fba" d="m512 164 8 2c-.33.16-.33.16-2 1l-1 3-1-1-2 2c-1.56-2.38-1.56-2.38-3-5z"/><path fill="#e89cb9" d="m527 157 4 2 1 3-1 2-5-1-1-3h2z"/><path fill="#fab1b5" d="M373 116v4l-4-1-1 2-5-1c6-6 6-6 10-4"/><path fill="#a088be" d="M116 89h1v10l-4 1c-.32-4.65.22-7.22 3-11"/><path fill="#9181b9" d="m80 62 4 1v4h-5l-3 2v-3l4-2z"/><path fill="#deafcb" d="m109 210 4 1-1 7h-3z"/><path fill="#e4b9d0" d="M133 210h3v8l-4-1z"/><path fill="#f29fb2" d="M446 192v4h-8l-1-2c4-2 4-2 9-2"/><path fill="#e2b3d0" d="m626 175 2 1-2 4h-4v-2h-11v-1c.83-.06 1.66-.12 2.52-.18.54-.05.54-.05 3.29-.26 1.08-.08 2.16-.16 3.27-.24C623 176 623 176 626 175"/><path fill="#fbb5bc" d="M364 161h17v1h-16l1 7h-3z"/><path fill="#e9a6be" d="M509 137c1.26 3.77.37 5.37-1 9h-5c1.74-3.49 3.53-6.03 6-9"/><path fill="#b39dd9" d="m1167 130 2 2c-5.03.61-9.93 1.13-15 1 3.53-3.53 8.2-3.32 13-3"/><path fill="#c8a8ca" d="M87 114h1l-1 13-2-1c-1.38-5.18-.37-7.26 2-12"/><path fill="#de95ba" d="M584 108c.66.17.66.17 4 1-.75 4.75-.75 4.75-3 7-2-3-2-3-1.62-5.69.2-.76.41-1.52.62-2.31"/><path fill="#e898b6" d="m496 190 1 2h4v4h-7l-1-2h3z"/><path fill="#b8a0da" d="m1027 167 2 3c-.96 3.2-2.52 5.99-4 9l-4-3 1.88-2.25C1025 171 1025 171 1027 167"/><path fill="#faa2ab" d="M415 156c2 2 2 2 2 5h-8v-2z"/><path fill="#b396d1" d="m948 142 4 2-1 3c-.23 2.73-.41 5.46-.56 8.19-.09 1.46-.17 2.91-.26 4.42-.06 1.12-.12 2.24-.18 3.39h-1z"/><path fill="#fb99a1" d="M326 145h6l-2 6-3-1v-2h-2z"/><path fill="#af85c6" d="M832 137c2.38.25 2.38.25 5 1l2 4-5 1z"/><path fill="#b29ddb" d="m1183 130 2 3-8 5-1-4 2.94-.88C1182 132 1182 132 1183 130"/><path fill="#a982c8" d="M889 131c8.61.61 8.61.61 11 3l-11 1-1-3z"/><path fill="#c9acce" d="M96 112h1c.87 6.36 1.27 10.85-1 17h-1z"/><path fill="#d5abcf" d="M637 78c5.15 1.38 8.77 3.79 13 7-.33.17-.33.17-2 1-2.62-.94-2.62-.94-5-2v-2l-6-2z"/><path fill="#907eb9" d="m118 79-1 2h-2l-1 11h-1V81l-3-1c3-1 3-1 8-1"/><path fill="#b4acd2" d="m91 64 7 2-4 1v4h-2l-1 2c-.38-2.66-.71-5.33-1-8z"/><path fill="#867ab7" d="M138 59h3l-2 9h-6l4-1-.06-3.44C137 60 137 60 138 59"/><path fill="#c493c6" d="m765 191 2 1v4l-10-1c2.67-1.33 5.33-2.67 8-4"/><path fill="#ad8ed1" d="M964 188h3q.06 3 0 6l-1 1h-5z"/><path fill="#b29ad7" d="m1133 177-1 9c-3-3-3-3-4-7 3-2 3-2 5-2"/><path fill="#b189c8" d="M847 129c.5.33.5.33 3 2 .69 3.62.69 3.62 1 7l-4 1z"/><path fill="#a482cb" d="M951 119h2c4 4 4 4 4 9h-2v-2h-2z"/><path fill="#e1a0bd" d="M525 118h3c-1 4-1 4-5 7l-3-1c2.31-3 2.31-3 5-6"/><path fill="#d19ac5" d="m642 108 7 1-1 3-5 1z"/><path fill="#b39ac7" d="m33 81 1 3 3 1-4 6-3-1z"/><path fill="#c98fbe" d="M634 78h3v2l6 2-2 2c-2.62-.38-2.62-.38-5-1v-2h-2z"/><path fill="#9181b9" d="m167 66 1 4-5-1-1 2v-2h-3v-2c3-1 3-1 8-1"/><path fill="#8073b7" d="M144 61h2v2c.99.16.99.16 6 1v2l-9-1c0-3 0-3 1-4"/><path fill="#8883bb" d="M164 35c4.75.88 4.75.88 7 2l1 4c-.33.16-.33.16-2 1v-2h-4v-3h-2z"/><path fill="#dab3d5" d="M711 194c.83.33.83.33 5 2-3.4 2.27-5.17 2.37-9.19 2.62-1.08.08-2.17.15-3.29.23-.42.03-.42.03-2.52.15 4.22-3.16 5.06-3.34 10-3z"/><path fill="#daa3c3" d="M638 194c-3.44 2.3-5.94 2.54-10 3v-3c4-1 6.06-.81 10 0"/><path fill="#d59bbf" d="M165 153h3v2l3 1h-3l1 3h-2l-1 3h-1z"/><path fill="#e69fb9" d="M45 148h2v2l2 1h-2l1 4-6-2 1-3h2z"/><path fill="#faa1a0" d="M298 140c-2.06 2.06-2.06 2.06-5 4-3.81-.25-3.81-.25-7-1 2.96-2.96 8.06-4.97 12-3"/><path fill="#fab2b6" d="M340 133h2c-.53 4.51-2.31 7.38-5 11h-1v-5l3-3z"/><path fill="#df91b2" d="M562 122h1v6l2 1-2 2c-.4 2.32-.74 4.66-1 7h-1c-.03-2.1-.05-4.21-.06-6.31-.01-1.17-.03-2.35-.04-3.55.1-3.14.1-3.14 1.1-6.14"/><path fill="#de93b6" d="m539 122 1 3h2l-1 5-4-2c.88-4.88.88-4.88 2-6"/><path fill="#f9a8af" d="M390 115c5.75.75 5.75.75 8 3l-4 2-4-2z"/><path fill="#cdb7d6" d="M148 105h1c.77 6.73 1.1 13.23 1 20h-1v-8h-2z"/><path fill="#dd9ebe" d="m578 89 3 3h-2l-2 4-3 2c1.75-6.75 1.75-6.75 4-9"/><path fill="#9287bc" d="M105 64c.66.17.66.17 4 1v2l4 2c-2.81.62-2.81.62-6 1l-3-2z"/><path fill="#d8a6c5" d="M104 210h3v8h-3z"/><path fill="#d4a8cb" d="M691 192h4l1 5c-3.73-.5-5.81-.87-9-3h5z"/><path fill="#a082d1" d="m1031.063 186.938 2.94.06-4 2 1 4-4-1c0-4.98 0-4.98 4.06-5.06"/><path fill="#e8a8c1" d="M523 183c.99.16.99.16 6 1l1 5-3 1c-4-4.75-4-4.75-4-7"/><path fill="#ce8ebb" d="m650 179 3 1c-.75 4.75-.75 4.75-3 7l-4-1h3c1-4 1-4 1-7"/><path fill="#b29bda" d="M1167 170c.83.16.83.16 5 1l1 6-5 1z"/><path fill="#d499bf" d="M93 158h2c.12 5.75.12 5.75-1 8h-2v6h-1c-.21-5.09.42-9.16 2-14"/><path fill="#b79bd6" d="M979 136c2 4 2 4 1.25 6.56C979 145 979 145 977 148c-1.6-4.79-.16-7.59 2-12"/><path fill="#d2a2ca" d="m674 133 3 4-4 4-2-1c1.88-5.88 1.88-5.88 3-7"/><path fill="#af99d7" d="M1135 126c3 4 3 4 3 6l-4 2-2-1c1.88-5.88 1.88-5.88 3-7"/><path fill="#b992be" d="M128 124h2c.95 3.7.95 6.3 0 10l-1-3h-2z"/><path fill="#cbafd7" d="m824 118-6 1-1 3c-3.56 1.19-3.56 1.19-7 2 4.51-4.9 7.26-7.69 14-6"/><path fill="#fbd6dc" d="m99 204 15 1v1l-15 1z"/><path fill="#b389c7" d="m878 190 4 2v3h-9l3-3h2z"/><path fill="#fca3ad" d="M392 192h9l1 2c-3.59.9-6.35 1.08-10 1z"/><path fill="#ce9bc4" d="m684 188 2 2 3-1 1 4-4 1c-2.75-1.94-2.75-1.94-5-4z"/><path fill="#d6a6c9" d="M675 182h3l2 3 4 2-3 1-1 2c-5-5.75-5-5.75-5-8"/><path fill="#fcadb2" d="M366 169c4 4.88 4 4.88 4 6l-8 1 1-3h3z"/><path fill="#d79ebf" d="M212 143c-4.2 3.15-4.85 3.36-9.75 3.19-.98-.03-1.97-.06-2.98-.08-.75-.04-1.5-.07-2.27-.11v-1c5.09-1.23 9.75-2.27 15-2"/><path fill="#e591b1" d="M523 139h3v7l-4-2z"/><path fill="#aa95da" d="M1106 119c4.42 1.35 6.34 3.26 9 7-4.32 0-5.93-2.13-9-5z"/><path fill="#b597d3" d="M910 118c4.42 1.35 6.34 3.26 9 7-.33.17-.33.17-2 1v-2h-4z"/><path fill="#a599c7" d="m161 62 4 4-6 1 1 3-4-1 2-1c.7-1.65 1.37-3.32 2-5z"/><path fill="#a194c3" d="M55 51c0 3.38-.87 5.83-2 9l-5-1c5.88-6.88 5.88-6.88 7-8"/><path fill="#a29fc9" d="M155 30c8.75 2.75 8.75 2.75 11 5l-5 1v-2l-5-1z"/><path fill="#726eae" d="m143 28 7 1 1 4-4 1-1-4z"/><path fill="#f8bac3" d="m187 196-5 5-2-5c4-1 4-1 7 0"/><path fill="#a286ce" d="m1058 191 4 1 2 4h-6z"/><path fill="#e7a5c1" d="M546 182c3.08 2.77 4.69 5.06 6 9l-6-3z"/><path fill="#c8b9e5" d="M1167 178v3c-3 3-3 3-5.7 3.07-.99-.12-1.97-.25-2.99-.38l-3.01-.37c-.76-.1-1.52-.21-2.3-.32v-1c2.47-.16 4.95-.33 7.42-.49C1163 181 1163 181 1167 178"/><path fill="#fba8b0" d="m378 180 8 1-1 3h-7z"/><path fill="#d3a4cc" d="m694 177 8 2c-.33.5-.33.5-2 3-3.12.19-3.12.19-6 0z"/><path fill="#e19ebc" d="m167 167 4 2 1-1h5c-3 3-3 3-6.69 3.19L167 171z"/><path fill="#c994bd" d="m132 146 5 1v2h-4l-1 7h-1z"/><path fill="#e8a1bb" d="M519 144c.99.16.99.16 6 1 0 3 0 3-2 6-2-3-2-3-4-7"/><path fill="#a482ce" d="M992 140h2v2h2l-1 4h-4c0-5 0-5 1-6"/><path fill="#c18cbe" d="M733 132c3.09 3.09 3.45 3.92 4 8l-5-1z"/><path fill="#af90cf" d="m947 133 3 4-2 4-4-5z"/><path fill="#e6a4bf" d="M581 128h1l-1 13-1-4-2-1 1-4h2z"/><path fill="#c4a9dc" d="m904 134-1 4-3-2c-2.66-.4-5.33-.74-8-1v-1c4.47-.67 7.57-1.11 12 0"/><path fill="#b08ab8" d="M86 107h2c.18 4.6.11 6.78-2 11-.84-4.02-1.05-7.02 0-11"/><path fill="#f89597" d="M314 94h6l-1 5-1-2c-2.56-.62-2.56-.62-5-1z"/><path fill="#dc95b5" d="M485 79h7v3c-3 1-3 1-7 0z"/><path fill="#b3a9cf" d="m107 74 2 4h4v2h-3v2h-2v-2h-2z"/><path fill="#957fb7" d="M90 70c2.71 4.07 2.14 7.2 2 12h-2c-.76-4.32-1.16-7.74 0-12"/><path fill="#9c93c4" d="M129 64c5.75 1.62 5.75 1.62 8 5l-6 1c-2-4-2-4-2-6"/><path fill="#8277b3" d="m166 52 3 1c0 5 0 5-3 9l-2-1 1-1v-3.5c0-3.5 0-3.5 1-4.5"/><path fill="#f7a7b3" d="M74 191h1c.12 6.75.12 6.75-1 9h-3l1-5h2z"/><path fill="#f9cbd5" d="m138 191 1 3c-4.43 1.11-7.53.67-12 0v-1c8.75-2 8.75-2 11-2"/><path fill="#bca4d6" d="M978 175h2l2 4 2 2-1 4c-5-7.75-5-7.75-5-10"/><path fill="#aa8cd1" d="m996 176 8 4c-4 2-4 2-6 2-2-3-2-3-2-6"/><path fill="#a68ed5" d="M1118 172h1v13c-1.66-3.33-2.64-5.39-3-9z"/><path fill="#f2b8c6" d="m207 166 2 4-4 5-1-5 3-1z"/><path fill="#fca0a6" d="m363 162 1 4-4 1-3-3v-1z"/><path fill="#e6a1be" d="m583 158 4 1 1 4c-3.37-.55-5.08-1.05-8-3z"/><path fill="#d39ec5" d="m670 141 2 4h-2v3l3 1-4 5c-.12-9.62-.12-9.62 1-13"/><path fill="#b69fd5" d="M965 132c2.57 3.86 2.15 6.45 2 11l-3-3c.31-4.19.31-4.19 1-8"/><path fill="#fa95a3" d="m407 130 1.88 2c2.12 2 2.12 2 4.12 2v3c-.99-.16-.99-.16-6-1-.38-1.66-.71-3.32-1-5z"/><path fill="#f8b4bb" d="M390 131c3.34 1.11 4.64 2.47 7 5-.33.5-.33.5-2 3-.62-.78-1.24-1.57-1.88-2.38C391 134 391 134 389 132z"/><path fill="#a58cd7" d="M1169 132h3c3 4.22 3 4.22 3 7l-5-1z"/><path fill="#a185d3" d="M1069 121h5v6c-2.5-1.31-2.5-1.31-5-3z"/><path fill="#c5acd0" d="M158 102c2.58 5.15 1.44 7.57 0 13h-1c-.22-1.79-.43-3.58-.62-5.38-.12-.99-.24-1.99-.36-3.02 0-.86-.01-1.72-.02-2.6z"/><path fill="#a592c2" d="M101 79h1v6h2v2h-3l-1 6h-1v-8h2z"/><path fill="#8b7cb9" d="m102 70 3 1c1.19 2.56 1.19 2.56 2 5h-5z"/><path fill="#8176b2" d="M62 46c2.78 1.39 2.98 3.16 4 6-.33.16-.33.16-2 1v-2l-5-1z"/><path fill="#9b95c2" d="M147 43c2.5.12 2.5.12 5 1l2 4-9-3z"/><path fill="#f7b7be" d="m60 194 2 1v3h2l-1 3-5-3z"/><path fill="#a983c9" d="m907 190 1 3h3v2h5v1h-9z"/><path fill="#eca9bc" d="m105 188 3 1-1 4h-4c1-4 1-4 2-5"/><path fill="#f4abba" d="m71 182 4 1c-3.31 2.56-3.31 2.56-7 5l-3-1 4-1z"/><path fill="#a688cc" d="m984 179 3 1c-.21.76-.41 1.53-.62 2.31C986 185 986 185 988 188l-4-2c-.94-2.88-1.37-4.26 0-7"/><path fill="#d396be" d="m636 172-2 4h-5v-2c3-2 3-2 7-2"/><path fill="#edaac3" d="m504 164 4 1-5 6-2-1v-2h3z"/><path fill="#ecb0c7" d="M206 160h7c-1.75 5.75-1.75 5.75-4 8l1-7z"/><path fill="#f994a1" d="M413 148h4v6l-4-2z"/><path fill="#cc99bf" d="M64 144h6l1 3-6 1z"/><path fill="#fba5aa" d="M330 143c.82.16.82.16 5 1l-1 4-3 1c-1-4.88-1-4.88-1-6"/><path fill="#e29ab8" d="M562 139h2l1 7-3 2z"/><path fill="#b599d3" d="m928 120 2 1-3 3v3h-5z"/><path fill="#b9a6dd" d="M1152 118h-3l-1 3h-2l-1 2-1-2-2-1c5.5-3.12 5.5-3.12 10-2"/><path fill="#fab5b8" d="M337 90c3.11 3.11 3.81 4.89 5 9h-3c-2.29-3.44-2.18-4.99-2-9"/><path fill="#f99fa1" d="M335 91c3 2 3 2 3.69 4.62.05.4.05.4.31 2.38l-3 1c-1.35-2.71-1.07-5.01-1-8"/><path fill="#9989be" d="M103 76h3l1 7-4-2z"/><path fill="#fcbac5" d="M171 202c4 1 4 1 6 3l-5 2z"/><path fill="#ad87cc" d="M908 190c.83.16.83.16 5 1v3l2 1h-4v-2h-3z"/><path fill="#d8a2c7" d="M644 187h5a139 139 0 0 1-5 5h-2c1-4 1-4 2-5"/><path fill="#e99eb6" d="M136 185h2v3l4 1-6 2z"/><path fill="#dc90b3" d="M594 188v1c-3.94.81-6 1-10 0v-2c3.94-1.31 6.12-.24 10 1"/><path fill="#fbb3bf" d="m408 184 4 2c-.99.82-.99.82-6 5l-1-4 3 1z"/><path fill="#a690d6" d="m1180 184 1 2h2c-2 4-2 4-4 6-1-4-1-4 1-8"/><path fill="#e099b9" d="m577 178 4 2h-3l3 5h-3l-2-4z"/><path fill="#fc949e" d="M365 175h5l2 5h-4l-1-3h-2z"/><path fill="#efaabc" d="M201 168h6c-2.69 2.25-4.65 3.88-8 5z"/><path fill="#cb98c0" d="M109 148h2c2 2 2 2 2 7l-5-1z"/><path fill="#eeb1c5" d="m28 150 4 1-1 4 3 1-4 2z"/><path fill="#c38fbf" d="M702 130c4 1 4 1 8 4h-10z"/><path fill="#bc89c2" d="M751 124h2c1.12 6.75 1.12 6.75 0 9h-2z"/><path fill="#e0a1c1" d="M587 104c.66.17.66.17 4 1-1 4-1 4-3 6-1.06-2.38-1.06-2.38-2-5z"/><path fill="#f9b8b9" d="M314 97h4v2h3l1 6z"/><path fill="#cf9cc3" d="m639 98-2 5-5-4c2-1 2-1 7-1"/><path fill="#a498c8" d="m132 75-1 6h-3l1-3-2-1c3-2 3-2 5-2"/><path fill="#a297c6" d="m118 74 1 4-5 1v-2h-2v-2c2-1 2-1 6-1"/><path fill="#a595c4" d="m201 65 4 4-2 4-3-3c.31-2.69.31-2.69 1-5"/><path fill="#a29bc7" d="M158 50c.38.08.38.08 2.31.5 2.69.5 2.69.5 5.69.5v4c-3.65-1.28-5.17-2.17-8-5"/><path fill="#8b84b9" d="m73 41-3 1v2l-5 1 2-4c4-1 4-1 6 0"/><path fill="#7773af" d="m146 33 2 2c-3.09 3.09-3.92 3.45-8 4 3.75-4.88 3.75-4.88 6-6"/><path fill="#f193aa" d="m428 192 4 2c1.99.38 3.99.73 6 1v1h-10z"/><path fill="#f297ac" d="M445 186h1v6h-4c1-4 1-4 3-6"/><path fill="#ca90bd" d="M685 181c.33.16.33.16 2 1-.33.16-.33.16-2 1zm-3 2 4 1-1 2h-5z"/><path fill="#fcabaf" d="m348 173 4 2-1 5c-3-4-3-4-3-7"/><path fill="#e3a6c3" d="m591 167 7 5-4 2c-3-4.75-3-4.75-3-7"/><path fill="#f2a8ba" d="m198 172 4 1v3h-6z"/><path fill="#c590c2" d="m723 171 2 2-3 3-3-1v-3z"/><path fill="#9f86d1" d="m1155 160 4 2-1 2h-6l-1-2z"/><path fill="#a685cd" d="M1030 148c2.67 5.34 1.77 8.16 1 14h-1c-.19-2.15-.38-4.29-.56-6.44-.05-.59-.05-.59-.32-3.62L1029 149z"/><path fill="#9f82d1" d="M1132 134c.49.33.49.33 3 2-.38 2.44-.38 2.44-1 5-.33.16-.33.16-2 1z"/><path fill="#ba9fd6" d="m928 134 4 3c-.83.5-.83.5-5 3l-1-4z"/><path fill="#fcb6b9" d="M353 128c1 4 1 4 0 8l-4 1c1.21-3.1 2.51-6.01 4-9"/><path fill="#ca9ac8" d="m732 129 3 2c-1.75 4.88-1.75 4.88-4 6l-1-5h2z"/><path fill="#d6b5d1" d="M85 128h1l-1 12h-1c-1.25-8.62-1.25-8.62 1-12"/><path fill="#a484cd" d="M960 126h2l1 5h-5l-1-3h3z"/><path fill="#f0b1c2" d="m451 119 2 1c-1.31 2.5-1.31 2.5-3 5h-3c2-4 2-4 4-6"/><path fill="#bd9bc3" d="M158 114h2l2 6-4 1z"/><path fill="#ae89bd" d="M99 109h1c.34 4.94.16 5.78-3 10-.09-2.67-.08-5.33 0-8z"/><path fill="#a68dbe" d="M127 95h2v5h-2v6h-1c-.12-7.62-.12-7.62 1-11"/><path fill="#ab9dc8" d="M101 76h2c.19 3.38.19 3.38 0 7l-3 2c-.04-2.67-.04-5.33 0-8z"/><path fill="#7f73b3" d="m110 58-1 4-5-1v-2c4-1 4-1 6-1"/><path fill="#7d76b2" d="m162 46 2 3c-.33.49-.33.49-2 3v-2h-4l1-3z"/><path fill="#8a83b9" d="M81 48c2.88-.12 2.88-.12 6 0l2 2-7 1z"/><path fill="#f9a9b3" d="M87 210h4l1 4-5-1z"/><path fill="#e8a9c3" d="M552 191c1.35 1.31 2.69 2.65 4 4v1h-5l-1-3h2z"/><path fill="#e893b3" d="M497 187h3v5h-3l-1-4z"/><path fill="#eca3b8" d="m90 188 1 2h6l-1 2c-3.06.62-3.06.62-6 1l-1-3z"/><path fill="#a88ed6" d="M1029 188h6c-2 4-2 4-4 5z"/><path fill="#a482cc" d="M992 165h2l-1 7h-2z"/><path fill="#fc969f" d="M364 158h5l-1 3-5 1c0-3 0-3 1-4"/><path fill="#d8b3cf" d="M131 146c1 4 .81 6.06 0 10h-1v-6l-3-1 4-1z"/><path fill="#b69cd7" d="m1028 142 2 1-1 3 2 2-3 4c-.38-2.99-.71-6-1-9z"/><path fill="#bda9de" d="M1148 141c2.69 1.64 5.35 3.3 8 5v1c-5 0-5 0-8-2z"/><path fill="#fbb8be" d="M348 137h1v8h-2l-1 2c.46-3.47.89-6.67 2-10"/><path fill="#a380cb" d="m982 133 2 2-1 4-3 1v-4h2z"/><path fill="#d0a3cc" d="m694 134 5 1-5 4-2-1v-2h2z"/><path fill="#e9a7c1" d="m513 132 5 1-3 1-1 2-2-1v2l-2-1z"/><path fill="#b886c2" d="M775 131c1.49.33 1.49.33 9 2v1l-10 1z"/><path fill="#e98eae" d="M468 132v2l4 1-12-1v-1c2.76-.6 5.16-1 8-1"/><path fill="#f9a0a8" d="M393 130c.66.16.66.16 4 1l1 3-3 1v-2l-3-1z"/><path fill="#ba98cf" d="m846 126 3 1 1 4-2 2-2-1z"/><path fill="#fbb3b5" d="m323 121 1 3h2l-1 3h-2v2h-2z"/><path fill="#c0aadb" d="M1002 119h-3l-1 3h-5c4.2-4.2 4.2-4.2 9-3"/><path fill="#fa9197" d="m325 112 3 4-1 4h-2z"/><path fill="#7771ae" d="M114 40c-4 2-4 2-9 2v-2c3.84-.96 5.32-.92 9 0"/><path fill="#a5a0cb" d="M171 38c3.65 1.28 5.17 2.17 8 5l-3 1v-2l-4-1z"/></svg>