<svg xmlns="http://www.w3.org/2000/svg" width="256" height="256" viewBox="0 0 256 256"><path fill="#af99c2" d="M203.727 42.293c20.73 18.2 35.63 45.18 37.49 73.01.5 14.97.36 29.36-4.22 43.7-.2.66-.4 1.33-.61 2.02-9.58 30.64-31.12 51.4-58.39 66.98-1.12.64-2.24 1.29-3.39 1.95-12.08 6.52-25.18 6.61-38.61 7.05-.69.02-1.39.04-2.11.07-15.62.44-33.63.94-47.89-6.07-.36-.18-.36-.18-2.21-1.05-1.95-.94-3.87-1.94-5.79-2.95-.92-.46-1.84-.92-2.79-1.39-26.07-13.15-45.75-34.42-55.08-62.36-9.36-30.39-7.73-60.65 6.64-89.18 13.98-26.33 38-44.73 65.87-54.32 38.95-11.85 80.08-3.54 111.09 22.54"/><path fill="#d4adc7" d="M172 41c.69.36 1.38.72 2.09 1.1 1.66.9 1.66.9 3.91 2.9.81 3.31.81 3.31 0 7-1.61 2.03-3.33 3.71-5.27 5.42C171 59 171 59 169 62c-.5.16-.5.16-3 1-3.53 8.81-.71 21.23.46 30.35.15 1.22.3 2.44.46 3.7.31 2.56.64 5.12.96 7.68.49 3.89.98 7.78 1.46 11.68l.93 7.5c.15 1.15.29 2.3.44 3.49.78 6.11 1.71 12.16 2.85 18.22.53 2.89.95 5.79 1.33 8.71.08.56.08.56.45 3.38.16 1.16.31 2.33.47 3.54 1.95 14.46 4.22 28.85 6.63 43.24.39 2.42.73 4.84 1.05 7.27.08.59.08.59.47 3.58.13 1.07.26 2.13.39 3.23.22.8.43 1.6.65 2.43l3 1c-2.54 1.78-5.06 3.34-7.75 4.88-.75.44-1.5.89-2.27 1.35-9.35 5.44-17.72 7.27-28.48 7.96-1.15.08-2.31.16-3.49.24-43.29 2.79-43.29 2.79-60.01-5.43-.73-.34-1.46-.69-2.21-1.04-1.96-.95-3.87-1.95-5.79-2.96-1.09-.52-2.19-1.03-3.31-1.56-2.37-1.27-4.06-2.3-5.69-4.44h2c.49-2 .49-2 .88-5 .16-1.2.33-2.4.5-3.64.09-.69.19-1.38.29-2.09.64-4.37 1.4-8.73 2.14-13.08 2.41-14.35 4.67-28.73 6.87-43.11.32-2.05.63-4.1.95-6.15 2.7-17.48 5.07-34.99 7.18-52.55.11-.92.22-1.83.34-2.77.32-2.61.63-5.22.93-7.84.05-.38.05-.38.29-2.33C92.98 68.41 92.98 68.41 91 64c-2.2-2.47-4.51-4.62-7.11-6.66-5.6-4.51-5.6-4.51-6.95-8.34 2.2-6.22 8.07-9.06 13.73-11.89C116.85 24.68 147.36 25.67 172 41"/><path fill="#f9f3f4" d="M172 41c.69.36 1.38.72 2.09 1.1 1.66.9 1.66.9 3.91 2.9.81 3.31.81 3.31 0 7-1.61 2.03-3.33 3.71-5.27 5.42C171 59 171 59 169 62c-.5.16-.5.16-3 1-3.53 8.81-.71 21.23.46 30.35.15 1.22.3 2.44.46 3.7.31 2.56.64 5.12.96 7.68.49 3.89.98 7.78 1.46 11.68l.93 7.5c.15 1.15.29 2.3.44 3.49.78 6.11 1.71 12.16 2.85 18.22.53 2.89.95 5.79 1.33 8.71.08.56.08.56.45 3.38.16 1.16.31 2.33.47 3.54 1.95 14.46 4.22 28.85 6.63 43.24.39 2.42.73 4.84 1.05 7.27.08.59.08.59.47 3.58.13 1.07.26 2.13.39 3.23.22.8.43 1.6.65 2.43l3 1c-1.2 1.03-1.2 1.03-3.39 2.29-.77.44-1.54.89-2.34 1.35-.83.47-1.66.94-2.52 1.42-.41.24-.41.24-2.47 1.43-6.1 3.51-6.1 3.51-7.28 3.51-.21-1.6-.35-3.22-.46-4.83-.08-1.03-.16-2.06-.24-3.12-.16-2.15-.31-4.31-.46-6.46-.08-1.05-.16-2.09-.24-3.17-.07-.94-.14-1.88-.21-2.85-.34-3.13-.83-6.17-1.37-9.27-.99-5.83-1.53-11.6-1.93-17.5-.74-9.9-1.65-19.79-2.68-29.67q-.105-1.02-.21-2.07c-.45-4.25-.89-8.5-1.34-12.75-.24-2.21-.47-4.43-.7-6.64-2.05-19.48-4.15-38.94-6.43-58.39l-.36-3.26c-.25-2.02-.54-4.05-.88-6.06-.71-4.63-.71-4.63-.49-6.96 2.27-1.05 2.27-1.05 5.38-.75 1.01.07 2.03.13 3.08.2.84.18 1.68.36 2.54.55.16.33.16.33 1 2 .33-.49.33-.49 2-3-2.38-.94-2.38-.94-6-2-1.26-.62-2.51-1.27-3.75-1.94-8.43-4.28-16.47-5.59-25.87-5.5-1.05.01-2.1.02-3.18.02-11.66.24-22.6 2.06-32.6 8.47C93 58 93 58 91 58c.81 2.75.81 2.75 2 5 .08-.6.17-1.19.26-1.8.24-.73.49-1.45.74-2.2 3.44-1.11 6.57-1.16 10 0 1.36 3.22.46 6.57-.06 9.94-.07.55-.07.55-.4 3.37-.38 3.2-.81 6.4-1.26 9.6-.48 3.6-.92 7.2-1.35 10.8-.19 1.58-.39 3.15-.58 4.72-.09.81-.19 1.61-.29 2.45-.32 2.54-.63 5.08-.95 7.62-2.31 18.41-4.14 36.86-5.97 55.32-.23 2.39-.47 4.78-.71 7.18-.12 1.16-.23 2.33-.35 3.53-.93 9.22-1.98 18.43-3.13 27.63-.73 6.05-1.13 12.02-1.25 18.11-.11 3.92-.34 7.03-1.7 10.73-5.14.45-8.89-2.16-13-5-2.54-2.25-2.54-2.25-4-4h2c.49-2 .49-2 .88-5 .16-1.2.33-2.4.5-3.64.09-.69.19-1.38.29-2.09.64-4.37 1.4-8.73 2.14-13.08 2.41-14.35 4.67-28.73 6.87-43.11.32-2.05.63-4.1.95-6.15 2.7-17.48 5.07-34.99 7.18-52.55.11-.92.22-1.83.34-2.77.32-2.61.63-5.22.93-7.84.05-.38.05-.38.29-2.33C92.98 68.41 92.98 68.41 91 64c-2.2-2.47-4.51-4.62-7.11-6.66-5.6-4.51-5.6-4.51-6.95-8.34 2.2-6.22 8.07-9.06 13.73-11.89C116.85 24.68 147.36 25.67 172 41"/><path fill="#bda0c4" d="M154 52c1.14.47 2.27.94 3.45 1.43 6.47 2.85 6.47 2.85 8.55 4.57-.62 2.94-.62 2.94-2 5-.09-.54-.18-1.08-.27-1.63L163 59c-3.76-1.08-7.26-1.22-11 0-.52 2.54.29 4.39 1.04 6.86 1.02 3.35 1.52 6.54 1.96 10.02.17 1.28.33 2.56.5 3.87.67 5.53 1.21 11.08 1.75 16.62.39 4.15.82 8.28 1.32 12.42 1.1 9.05 2.12 18.07 1.43 27.21l-1-2h-2v2h-4v-2c-1.99 0-3.97.01-5.96.12C145 134 145 134 142 132v-4l-2 3c-.24-2.35-.28-4.58-.25-6.94 0-.76.01-1.53.01-2.32.17-10.81 1.41-21.55 2.5-32.29.22-2.3.42-4.59.62-6.89.12-1.3.24-2.59.36-3.93-.08-.87-.16-1.74-.24-2.63-1.98-.17-1.98-.17-4 1-.42 2.82-.56 5.27-.54 8.09l-.03 2.49c-.04 2.64-.05 5.28-.05 7.92-.02 2.61-.04 5.22-.08 7.83-.02 1.63-.03 3.26-.02 4.88-.13 13.64-.13 13.64-3.28 16.79-.25 3.99-.19 8-.19 12 0 .57 0 .57-.03 3.43-.01 1.07-.01 2.15-.01 3.26 0 .99-.01 1.99-.01 3.01.08.76.16 1.52.24 2.3.33.16.33.16 2 1h-4c-.46-2.83-.61-5.29-.61-8.13-.02-.86-.03-1.71-.05-2.59-.05-2.8-.07-5.6-.09-8.4l-.09-5.74c-.06-4.81-.11-9.61-.14-14.41-.02-2.57-.04-5.14-.07-7.71-.03-4.28-.06-8.56-.07-12.83-.01-1.29-.01-2.58-.02-3.92 0-1.14 0-2.29.01-3.48v-3.04c.02-.29.02-.29.13-1.75.16.5.16.5 1 3h3c.62-2.38.62-2.38 1-5l1-2c6.31-.34 6.31-.34 9 1l-2-3c.36-2.84 1.09-5.28 2-8-2.84-1.42-4.88-1.4-8-1-.81 2.19-.81 2.19-1 5-.58 3.46-1 5-3 8v-2l-2-1h2v-3h-3c.31-3.31.31-3.31 1-7v-3c-2.15-.4-2.15-.4-4.94-.38-.91 0-1.83-.01-2.77-.02-.76.13-1.51.26-2.29.4-1 3-1 3 .25 6.25.25.91.5 1.81.75 2.75-2.31.19-2.31.19-5-1-.08-.85-.16-1.69-.25-2.56-.25-.81-.5-1.61-.75-2.44-3.13-.95-5.93-1.28-9 0-.1 2.52.59 4.38 1.44 6.74.19.74.37 1.49.56 2.26l-2 3h4c.63 2.5.63 2.5.82 6.03l.24 3.94.21 4.25c.08 1.41.16 2.82.25 4.24.17 2.89.34 5.79.49 8.68 1.15 21.29 1.15 21.29 1.99 28.86.45-10.33.12-20.72-.03-31.05-.04-2.87-.07-5.74-.1-8.62-.01-1.42-.04-2.84-.07-4.26-.04-2.01-.06-4.03-.08-6.04-.02-1.16-.03-2.33-.05-3.53.11-.82.22-1.65.33-2.5h3c2.3 3.21 2.39 6.52 2.62 10.38.08 1.1.15 2.2.23 3.33.53 12.48 0 24.97-.54 37.44-.08 1.96-.16 3.91-.23 5.87-.1 2.86-.22 5.72-.35 8.58l-.09 2.64c-.23 4.77-.77 7.76-3.64 11.76 1.45-.18 1.45-.18 4-1 1.91-.09 3.83-.13 5.75-.12.98-.01 1.97-.01 2.98-.01.75.04 1.5.08 2.27.13v1l-2.74-.06c-3.94.07-6.67.39-10.26 2.06-2.15 4.52-2.35 9.1-2.73 14.05-.43 4.7-1.15 9.35-1.83 14.01-.7 4.76-1.36 9.53-2.01 14.3C113 202 113 202 112 205l-2 1c-.12.6-.25 1.2-.38 1.81-.83 2.91-2.47 4.1-4.62 6.19-3 4.39-3 4.39-3 8-1.97.48-1.97.48-4.5.75-2.52.45-2.52.45-4.5 1.25-.25 3.56-.25 3.56 0 7-2.37 1-2.37 1-5 1l-2-1c-.04-3.13.04-6.14.23-9.26.06-.94.11-1.89.16-2.86.54-9.04 1.48-18.02 2.54-27.01.57-4.86 1.12-9.73 1.68-14.6.11-1.01.23-2.01.35-3.05 1.16-10.13 2.23-20.28 3.29-30.42 1.7-16.23 3.49-32.44 5.44-48.63 1-8.44 1.94-16.89 2.72-25.35.28-3.05.6-5.85 1.45-8.79.02-.34.02-.34.14-2.03-2.09-.66-2.09-.66-4.94-.62-.93-.02-1.87-.03-2.84-.04-.36.11-.36.11-2.22.66-.19 2.6-.19 2.6 0 5-2-1-2-1-2.9-3.37-.03-.87-.07-1.74-.1-2.63 14.12-13.43 46.49-13.96 63-6"/><path fill="#8d86ba" d="M203.727 42.293c5.2 4.56 9.96 9.3 14.27 14.71.66.79 1.31 1.59 1.99 2.4 3.8 4.94 5.82 8.38 5.36 14.69-.35 1.91-.35 1.91-1.35 4.91h2l-1 2-2-1c.12.96.23 1.93.35 2.92-.06.51-.06.51-.35 3.08-2.77.43-4.75.47-7.5.25-2.51-.16-4.98-.24-7.5-.25v2c-1.75.23-1.75.23-4 .18-.74 0-1.48-.01-2.25-.01-.57-.06-1.15-.12-1.75-.17v-1c-3.43-.13-3.43-.13-7 0l-1 1c-3.46.02-6.9-.03-10.36-.13-1.88-.03-3.76.04-5.64.13v2h-2v5c-1.85-2.44-1.99-4.15-1.93-7.19-.02-.93-.05-1.86-.07-2.81-.49-.17-.49-.17-3-1v2.25c0 2.75 0 2.75-1.42 4.73-.52.34-1.04.67-1.58 1.02-3.02-7.77-3.52-19.83-1.17-27.82 1.17-2.18 1.17-2.18 4.17-3.18 1.79-1.82 1.79-1.82 3.63-4 .61-.72 1.22-1.45 1.85-2.19.25-.3.25-.3 1.52-1.81l1-1c.48-3.3.48-3.3 0-7-2.29-1.88-4.02-2.99-6.62-4.25-.62-.33-1.24-.65-1.87-.99-1.24-.64-2.48-1.27-3.72-1.88-1.64-.81-3.24-1.66-4.85-2.52-3.1-1.44-5.98-2.25-9.31-2.99-1.06-.24-2.12-.48-3.21-.72-20.93-3.98-44.23-2.65-62.34 9.65-.31.23-.31.23-1.86 1.36-3.22 2.34-3.22 2.34-6.22 3.34.02 1.07.04 2.14.07 3.25-.02.9-.05 1.81-.07 2.75-.57-.48-1.15-.95-1.75-1.44-.74-.52-1.48-1.03-2.25-1.56-1.93 2.18-1.93 2.18-4 5-2.68 1.75-2.68 1.75-5 2-.68-3.38-.68-3.38-1-7h-2v-2c-1.19-.11-2.39-.21-3.62-.32-1.12-.22-2.23-.45-3.38-.68.59-5.26 5.14-8.51 9.03-11.63 41.64-30.99 102.34-24.34 140.7 7.92m-137.73 7.71 1 2Z"/><path fill="#e1b4c8" d="M15 109h1c.1 2.15.13 4.3.14 6.46l.06 4.06c.03 2.14.05 4.29.05 6.44 0 2.06.04 4.12.08 6.18l.03 3.77C17 139 17 139 19.54 140.8c.81.4 1.62.79 2.46 1.2v2h2l1 3-3 2c1.56 1.25 1.56 1.25 4 2 1.81-.81 1.81-.81 4-2 1.22-.14 2.43-.29 3.69-.44 1.09-.18 2.18-.37 3.31-.56l1-3c2.33-.33 4.67-.67 7-1l1-3c2.29-.22 2.29-.22 5.06-.06 2.79.15 2.79.15 4.94.06v-2c2.19-.55 2.19-.55 5-.88.93-.12 1.86-.24 2.81-.36q1.08.12 2.19.24v4h2c-.31 2-.64 4-1 6l1 2h6v2h3v4c.85-.27 1.69-.54 2.56-.81.81-.06 1.61-.13 2.44-.19-.17 3.07-.53 5.96-1 9-.09.57-.09.57-.53 3.44-.62 3.94-1.26 7.88-1.91 11.81-.43 2.67-.87 5.34-1.31 8.02-.21 1.29-.42 2.59-.64 3.92-.58 3.61-1.14 7.22-1.69 10.83-.31 2-.61 3.99-.92 5.98-.11.74-.22 1.48-.34 2.25-.27 1.71-.59 3.42-.91 5.13-.1.55-.1.55-.58 3.33-.38.76-.77 1.51-1.17 2.29-9.68.11-18.39-9.61-24.98-15.93-20.75-20.66-31.88-49.38-32.14-78.51.08-12.11.08-12.11 1.12-17.56"/><path fill="#f7ecee" d="M120 156c2.82-.36 5.2-.47 8-.38.37.01.37.01 2.23.01 5.49.09 5.49.09 7.77 2.37.44 2.47.78 4.86 1.04 7.35.04.37.04.37.25 2.22.26 2.35.52 4.7.77 7.05.18 1.57.35 3.13.53 4.69l.96 8.69c.08.65.15 1.31.23 1.98.16 1.43.3 2.87.43 4.31.19 1.91.48 3.81.79 5.71h2v3c.62.1 1.24.21 1.88.31.7.23 1.4.46 2.12.69 1.54 3.23 2.23 5.12 1.31 8.62-.05.4-.05.4-.31 2.38 2.44 2.19 2.44 2.19 5 4v2c1.71.57 1.71.57 3.94 1.12 2.23.75 2.23.75 4.06 1.88.58 1.97.58 1.97.69 4.19.1 1.26.2 2.51.31 3.81 2.75.38 2.75.38 5 0-8.72 5.81-22.75 4.66-33 5-.7.02-1.4.05-2.11.07-8.91.25-17.7-.18-26.58-.95-.93-.07-1.86-.15-2.82-.23-9.65-.92-9.65-.92-13.49-2.89-.69-3.29.39-6.11 2-9 2.03-1.22 3.89-1.78 6.17-2.4 1.83-.6 1.83-.6 3.14-2.48.23-.7.46-1.4.69-2.12 1.43-2.49 2.88-4.84 4.62-7.12C109 208 109 208 110 205h2c.49-2.48.49-2.48.88-6.19.16-1.44.32-2.89.49-4.34.09-.84.19-1.68.29-2.54.71-6.07 1.53-12.13 2.34-18.18.17-1.29.33-2.57.5-3.9.17-1.21.33-2.43.5-3.68.14-1.09.29-2.18.44-3.31.53-2.69.97-4.62 2.56-6.86"/><path fill="#bea0c4" d="M21 87c1.34 2.69.9 4.61.44 7.56-.77 5.21-.01 10.43 1.56 15.44h2v3c1.94-.62 1.94-.62 4-2l1-3-2-1c1.99-1.99 5.78-1.47 8.5-1.62.4-.03.4-.03 2.44-.15 10.4-.46 20.8.06 31.2.54l2.15.09c1.96.08 3.91.17 5.87.26L81 106l1-2c2.5.69 2.5.69 5 2 2.83 8.5.28 18.27-1.03 26.93-.35 2.33-.68 4.66-1.02 6.98l-.66 4.48c-.1.69-.2 1.38-.3 2.09-.57 3.73-1.24 7.15-2.99 10.52-2.12.06-2.12.06-4-1v-4h-3v-2q-3-.06-6 0c-.33-.16-.33-.16-2-1 .66-2.34 1.32-4.67 2-7h-2v-4c-2.19-.24-2.19-.24-5 .12-.93.11-1.86.22-2.81.33-.72.18-1.45.36-2.19.55v2c-2.15.34-2.15.34-4.94.5-2.77.16-2.77.16-5.06.5l-1 2c-.58.06-.58.06-3.5.38-1.16.2-2.31.41-3.5.62-.13.66-.27 1.32-.41 2-.19.66-.39 1.32-.59 2-2.25.54-2.25.54-5 .62-2.75.11-2.75.11-5 .38-.16.33-.16.33-1 2l-3-2c-.16.33-.16.33-1 2-.75-1.75-.75-1.75-1-4l3-2v-2h-4c-3-2.75-3.92-4.47-4.53-8.51-.04-1.35-.05-2.69-.04-4.04 0-.72-.01-1.45-.02-2.19-.02-2.34 0-4.67.03-7.01v-2.39c.11-23.27.11-23.27 5.56-32.86"/><path fill="#9d90bc" d="M154 52c1.14.47 2.27.94 3.45 1.43 6.47 2.85 6.47 2.85 8.55 4.57-.62 2.94-.62 2.94-2 5-.09-.54-.18-1.08-.27-1.63L163 59c-3.76-1.08-7.26-1.22-11 0-.52 2.54.29 4.39 1.04 6.86 1.02 3.35 1.52 6.54 1.96 10.02.17 1.28.33 2.56.5 3.87.67 5.53 1.21 11.08 1.75 16.62.39 4.15.82 8.28 1.32 12.42 1.1 9.05 2.12 18.07 1.43 27.21l-1-2h-2v2h-4v-2c-1.99 0-3.97.01-5.96.12C145 134 145 134 142 132v-4l-2 3c-.24-2.35-.28-4.58-.25-6.94 0-.76.01-1.53.01-2.32.17-10.81 1.41-21.55 2.5-32.29.22-2.3.42-4.59.62-6.89.12-1.3.24-2.59.36-3.93-.08-.87-.16-1.74-.24-2.63-1.98-.17-1.98-.17-4 1-.42 2.82-.56 5.27-.54 8.09l-.03 2.49c-.04 2.64-.05 5.28-.05 7.92-.02 2.61-.04 5.22-.08 7.83-.02 1.63-.03 3.26-.02 4.88-.13 13.64-.13 13.64-3.28 16.79-.25 3.99-.19 8-.19 12 0 .57 0 .57-.03 3.43-.01 1.07-.01 2.15-.01 3.26 0 .99-.01 1.99-.01 3.01.08.76.16 1.52.24 2.3.33.16.33.16 2 1h-4c-.46-2.83-.61-5.29-.61-8.13-.02-.86-.03-1.71-.05-2.59-.05-2.8-.07-5.6-.09-8.4l-.09-5.74c-.06-4.81-.11-9.61-.14-14.41-.02-2.57-.04-5.14-.07-7.71-.03-4.28-.06-8.56-.07-12.83-.01-1.29-.01-2.58-.02-3.92 0-1.14 0-2.29.01-3.48v-3.04c.02-.29.02-.29.13-1.75.16.5.16.5 1 3h3c.62-2.38.62-2.38 1-5l1-2c6.31-.34 6.31-.34 9 1l-2-3c.36-2.84 1.09-5.28 2-8-2.84-1.42-4.88-1.4-8-1-.81 2.19-.81 2.19-1 5-.58 3.46-1 5-3 8v-2l-2-1h2v-3h-3c.31-3.31.31-3.31 1-7v-3c-2.15-.4-2.15-.4-4.94-.38-.91 0-1.83-.01-2.77-.02-.76.13-1.51.26-2.29.4-1 3-1 3 .25 6.25.25.91.5 1.81.75 2.75-2.31.19-2.31.19-5-1-.08-.85-.16-1.69-.25-2.56-.25-.81-.5-1.61-.75-2.44-3.13-.95-5.93-1.28-9 0-.1 2.52.59 4.38 1.44 6.74.19.74.37 1.49.56 2.26l-2 3h4c.52 2.46.7 4.5.75 7 .01.37.01.37.08 2.23.08 2.59.13 5.18.17 7.77.03 1.06.05 2.12.08 3.21.08 3.35.13 6.69.17 10.04.02 1.1.04 2.2.07 3.34 0 1.01 0 2.01.01 3.05 0 .46 0 .46.03 2.77q-.18.78-.36 1.59-1.53-1.47-3-3c-1.68.63-3.35 1.29-5 2v-3c-2.83-.89-4.3-1.35-7 0-.59-8.92.69-17.85 1.65-26.72.29-2.6.57-5.21.84-7.82l.54-5.01c.08-.77.16-1.55.25-2.35.34-3.08.71-6.07 1.41-9.09.1-.66.21-1.33.31-2.01-2.09-.66-2.09-.66-4.94-.62-.93-.02-1.87-.03-2.84-.04-.36.11-.36.11-2.22.66-.19 2.6-.19 2.6 0 5-2-1-2-1-2.9-3.37-.03-.87-.07-1.74-.1-2.63 14.12-13.43 46.49-13.96 63-6"/><path fill="#e5b7c9" d="M238 147h1c-1.55 24.04-16.72 47.27-34.29 63.02-12.14 10.45-12.14 10.45-17.46 11.54-.37-.09-.37-.09-2.25-.56-2.1-4.04-2.63-8.3-3.22-12.76-.1-.74-.21-1.49-.31-2.25-.33-2.37-.65-4.74-.97-7.11-.42-3.11-.85-6.22-1.28-9.33-.1-.74-.2-1.49-.31-2.26-.7-5.08-1.58-10.1-2.66-15.12-.27-2.31-.04-3.99.75-6.17v3c2.5 0 2.5 0 5-1-.05-.42-.05-.42-.28-2.52.09-.82.18-1.64.28-2.48 3.06-.64 3.06-.64 7-.69 2.34-.04 4.67-.13 7-.31v-2c1.13-.14 2.27-.29 3.44-.44.59-.09.59-.09 3.56-.56l1-3c5.9-2.72 11.72-3.81 18.12-4.69.87-.13 1.74-.26 2.63-.39 3.71-.53 7.12-.92 10.87-.81.39-.02.39-.02 2.38-.11z"/><path fill="#f7f1f4" d="m125.313 58.504 2.69.06h2.69c.76.15 1.52.29 2.31.44l2 3c-.57 2.04-.57 2.04-1.57 4.18-1 2.17-1 2.17-1.43 3.82h3v4l2-2v-4c0-4 0-4 2-6 4.05-.35 5.55-.31 9 2-.65 1.67-1.32 3.33-2 5 .31 1.11.62 2.22.93 3.37.03.87.05 1.73.07 2.63-1.86-.09-1.86-.09-4.31-.57-2.53-.47-2.53-.47-4.69-.43-1.38 3.43-1.38 3.43-2 7h-3c-.4 2.65-.4 2.65-.42 6.41-.01.34-.01.34-.03 2.06-.02 2.27-.02 4.54-.02 6.8-.01 1.57-.02 3.14-.02 4.7-.02 3.3-.02 6.59-.01 9.88 0 4.23-.03 8.45-.07 12.68-.02 3.24-.03 6.48-.02 9.72l-.03 4.68c-.02 2.17-.02 4.35 0 6.53v3.76c.2.92.41 1.83.62 2.78 2.54.72 2.54.72 5 1v3c-3.29.71-6.71.46-10.07.43l-2.91.06h-2.75c-.42 0-.42 0-2.55.01-.57-.17-1.14-.33-1.72-.5.18-2.12.47-3.47 2-5 .23-3.01.4-6 .53-9.02.05-.92.09-1.84.13-2.78l.27-5.88c.13-2.95.27-5.91.41-8.86 1.17-25.56 1.17-25.56.22-38.09-.08-1.13-.16-2.25-.25-3.41-.54-5.06-.54-5.06-1.31-6.96h-3c-.07 3.09.06 6 .3 9.07.13 1.94.25 3.88.36 5.81l.18 3.06c.39 7.67.31 15.34.29 23.01-.01 2.93 0 5.86 0 8.79v5.59c0 .87 0 1.75.01 2.65-.01 2.01-.07 4.01-.14 6.02h-1c-.3-2.42-.53-4.81-.72-7.24-.06-.75-.13-1.5-.19-2.27-.2-2.41-.4-4.83-.59-7.24-.13-1.59-.27-3.17-.4-4.76-.25-3.08-.51-6.17-.75-9.26-.21-2.58-.44-5.15-.68-7.73-.62-6.74-.71-13.29-.37-20.05.05-2.16.05-2.16-.3-5.45h-4c.31-2.07.31-2.07 1-5-.19-1.24-.37-2.48-.57-3.75-.14-1.08-.28-2.15-.43-3.25 3.05-1.53 5.64-1.24 9-1 1.93 1.25 1.93 1.25 3 3v4h3l-1.44-2.75c-1.56-3.25-1.56-3.25-.97-5.43 1.41-1.82 1.41-1.82 3.72-2.32"/><path fill="#deb2c7" d="m93 154 3 2c-.2 2.05-.48 4.09-.81 6.12-.14 3.27-.14 3.27.81 5.88 5.42 1.33 10.52.94 16 0l1-2h2l1 2 2-3c-.12 2.39-.37 4.69-.69 7.06-.09.77-.19 1.53-.29 2.31-.79 6.18-1.67 12.34-2.58 18.51-.13.86-.26 1.72-.39 2.6-.12.81-.24 1.62-.37 2.45-.1.71-.21 1.43-.32 2.16C113 202 113 202 112 205c-.33.16-.33.16-2 1-.12.6-.25 1.2-.38 1.81-.83 2.91-2.47 4.1-4.62 6.19-3 4.39-3 4.39-3 8-1.97.48-1.97.48-4.5.75-2.52.45-2.52.45-4.5 1.25-.25 3.56-.25 3.56 0 7-2.37 1-2.37 1-5 1l-2-1c-.05-3.08.03-6.05.22-9.12.05-.94.1-1.87.15-2.84.65-10.76 1.87-21.46 3.13-32.16l1.02-8.86c.21-1.86.43-3.73.65-5.59.66-5.66 1.17-11.3 1.41-16.99z"/><path fill="#bdb8d4" d="m125.313 58.504 2.69.06h2.69c.76.15 1.52.29 2.31.44l2 3c-.57 2.04-.57 2.04-1.57 4.18-1 2.17-1 2.17-1.43 3.82h3v4l2-2v-4c0-4 0-4 2-6 4.05-.35 5.55-.31 9 2-.65 1.67-1.32 3.33-2 5 .31 1.11.62 2.22.93 3.37.03.87.05 1.73.07 2.63-1.86-.09-1.86-.09-4.31-.57-2.53-.47-2.53-.47-4.69-.43-1.38 3.43-1.38 3.43-2 7h-3c-.42 2.32-.75 4.65-1 7h-1c-.13-3.36-.19-6.71-.23-10.06-.26-.97-.51-1.94-.77-2.94-3.04-1.47-3.04-1.47-6-1-.43 3.18-.47 5.7-.25 8.87.08 1.69.16 3.37.23 5.06l.15 2.28c-.04.59-.09 1.18-.13 1.79-.33.16-.33.16-2 1-.38-2.83-.38-2.83-.57-6.69-.45-9.01-.45-9.01-1.43-11.31h-3c-.07 3.09.06 6 .3 9.07.13 1.94.25 3.88.36 5.81l.18 3.06c.39 7.67.31 15.34.29 23.01-.01 2.93 0 5.86 0 8.79v5.59c0 .87 0 1.75.01 2.65-.01 2.01-.07 4.01-.14 6.02h-1c-.3-2.42-.53-4.81-.72-7.24-.06-.75-.13-1.5-.19-2.27-.2-2.41-.4-4.83-.59-7.24-.13-1.59-.27-3.17-.4-4.76-.25-3.08-.51-6.17-.75-9.26-.21-2.58-.44-5.15-.68-7.73-.62-6.74-.71-13.29-.37-20.05.05-2.16.05-2.16-.3-5.45h-4c.31-2.07.31-2.07 1-5-.19-1.24-.37-2.48-.57-3.75-.14-1.08-.28-2.15-.43-3.25 3.05-1.53 5.64-1.24 9-1 1.93 1.25 1.93 1.25 3 3v4h3l-1.44-2.75c-1.56-3.25-1.56-3.25-.97-5.43 1.41-1.82 1.41-1.82 3.72-2.32"/><path fill="#f2e0e8" d="M130 219c1.06.38 2.13.76 3.22 1.14 2.78 1.86 2.78 1.86 3.96 5.43.44 4.23.42 7.46-1.18 11.43-5.02 1.45-9.61 1.04-14.75.3-2.25-.3-2.25-.3-4.59-.42-2.21-.13-2.21-.13-5.66-.88-.67-2.21-.67-2.21-.19-4.94.13-.89.26-1.79.4-2.71C112 226 112 226 115 224l1-3c-2.85-.22-2.85-.22-6.62-.06-2.13.08-4.26.13-6.38.06 4.04-2.69 7.62-2.76 12.38-3.25.85-.1 1.7-.21 2.57-.31 4.61-.49 7.87-.71 12.05 1.56"/><path fill="#ede4f2" d="M139 76h4c.46 2.64.46 2.64.37 6.47-.02.7-.03 1.41-.05 2.13-.27 9.58-1.09 19.14-1.92 28.69-.28 3.26-.54 6.52-.8 9.78-.18 2.07-.35 4.14-.53 6.21-.08.98-.15 1.96-.23 2.96-.08.89-.16 1.78-.25 2.7-.06.79-.13 1.57-.2 2.38-.06.28-.06.28-.39 1.68h-2c-.21-2.35-.21-2.35-.15-5.68.02-1.23.03-2.47.05-3.75l.09-4.1c.02-1.38.04-2.77.07-4.16.05-2.92.1-5.83.16-8.74.08-3.75.14-7.49.2-11.24.05-2.86.1-5.73.16-8.6.02-1.38.04-2.76.07-4.14.03-1.93.07-3.86.11-5.79.02-1.09.05-2.19.07-3.33C138 77 138 77 139 76"/><path fill="#f1e9f6" d="M113 76h4c.5 2.97.7 5.59.74 8.58l.09 2.71c.08 2.9.13 5.81.17 8.71.01.94.03 1.88.04 2.85.08 5.68.1 11.35.09 17.03-.01 2.94 0 5.87.01 8.81 0 1.87-.01 3.74-.01 5.61 0 .87.01 1.75.01 2.66-.01 2.01-.07 4.03-.14 6.04h-1c-.3-2.42-.53-4.81-.72-7.23-.06-.75-.12-1.5-.19-2.27-.2-2.42-.4-4.83-.59-7.25l-.39-4.75c-.26-3.09-.51-6.18-.76-9.26-.3-3.61-.61-7.22-.92-10.83-.4-4.72-.67-9.42-.74-14.16l-.09-2.15c-.03-2.02-.03-2.02.4-5.1"/><path fill="#d4b9cc" d="m132 220 2.16.61c1.84 1.39 1.84 1.39 2.3 4.65-.01.64-.01.64-.08 3.86-.01.65-.01.65-.04 3.89-.06.49-.06.49-.34 2.99h-2c-.15-2.62.01-5.19.12-7.81L134 226h-2c-.12 2.19-.12 2.19 0 5s.12 2.81 0 5h-2l.12-3.5-.12-3.5h-4c-.12 3.5-.12 3.5 0 7h-2c-.15-2.62.01-5.19.12-7.81L124 226h-2c-.12 2.19-.12 2.19 0 5s.12 2.81 0 5h-2c-.41-2.96-.41-2.96-.5-6.81-.05-1.27-.1-2.53-.16-3.83.66-3.36.66-3.36 3.5-5.32 3.63-1.19 5.51-1.07 9.16-.04"/><path fill="#fdf0f2" d="M128.25 206.813c.92-.01 1.83-.02 2.78-.04 5.65-.01 10.62.31 15.97 2.23 1.75 2.14 1.75 2.14 2 4-1.47.17-1.47.17-4.06-.25-5.84-.72-11.57-.92-17.44-.94-.91 0-1.82-.01-2.76-.01-5.96.03-11.49.58-17.27 2.15-.48.02-.97.03-1.47.05.57-1.88.57-1.88 2-4 2.87-1.19 2.87-1.19 6-2 .63-.18 1.25-.36 1.9-.54 4.06-.89 8.22-.65 12.35-.65"/><path fill="#f2eff5" d="M128 58.688c.89-.02 1.77-.03 2.69-.05l2.31.36 2 3c-.53 2.05-.53 2.05-1.5 4.19-.97 2.17-.97 2.17-1.5 3.81h2v2c-2.91.63-2.91.63-6.62 1-.62.07-.62.07-3.73.44-.88-.14-1.75-.29-2.65-.44.66-2.79.66-2.79 2-6-.62-2.01-1.28-4.02-2-6 2.52-2.52 3.51-2.29 7-2.31"/><path fill="#968cb8" d="M117 75h3c3.09 4.48 2.62 10.07 2.88 15.31.07 1.04.14 2.08.21 3.15.05.98.1 1.96.15 2.97.03.45.03.45.15 2.73-.13.61-.26 1.21-.39 1.84-1.99-.33-1.99-.33-4-1-.36 1.87-.36 1.87-.19 4.44.09 1.52.16 3.04.19 4.56h-1c-1.2-8-1.15-16.24-1.25-24.31l-.06-2.88c-.01-.88-.01-1.76-.02-2.67l-.03-2.42c.12-.57.24-1.13.36-1.72"/><path fill="#9d9bc4" d="M117 15c15.69-1.47 33.02-.1 48 5-1.56 1.25-1.56 1.25-4 2v-2c-3.67-.21-6.5-.17-10 1-2.6.17-5.15.28-7.75.31-.36.02-.36.02-2.15.09-2.02.03-2.02.03-5.1-.4.19-.66.38-1.31.57-1.99.15-.66.29-1.33.43-2.01-1.72-.53-1.72-.53-4.28-.57l-2.74-.09-2.92-.03c-1.88-.04-3.77-.08-5.65-.13-.84-.02-1.69-.03-2.56-.04-.61-.04-1.22-.09-1.85-.14z"/><path fill="#f0ecf4" d="M141.938 61.75c3.06.25 3.06.25 6.06 2.25-.65 1.67-1.32 3.34-2 5 .33 1.09.66 2.19 1 3.31V75c-3.52 1.25-6.52 1.43-10 0-1.14-3.73-.79-7.22 0-11 2-2 2-2 4.94-2.25"/></svg>